<?xml version="1.0" encoding="utf-8"?>
<!-- Generator: Adobe Illustrator 22.0.1, SVG Export Plug-In . SVG Version: 6.00 Build 0)  -->
<svg version="1.1" id="Layer_1" xmlns="http://www.w3.org/2000/svg" xmlns:xlink="http://www.w3.org/1999/xlink" x="0px" y="0px"
	 viewBox="0 0 80 80" style="enable-background:new 0 0 80 80;" xml:space="preserve">
<style type="text/css">
	.st0{fill:#DEE2E6;}
	.st1{fill:none;}
	.st2{fill:#F7F8F9;}
	.st3{fill:none;stroke:#3366FF;stroke-width:1.6021;stroke-linecap:round;stroke-miterlimit:10;}
	.st4{opacity:0;fill:none;stroke:#FFFFFF;stroke-miterlimit:10;}
</style>
<g>
	<g>
		<path class="st0" d="M15.7,23.8c0.3,0,0.6-0.1,0.8-0.4c0.4-0.5,0.8-1,1.4-1.4c0.4-0.3,0.5-1,0.2-1.4c-0.3-0.4-1-0.5-1.4-0.2
			c-0.7,0.5-1.3,1.2-1.8,1.9c-0.3,0.5-0.2,1.1,0.2,1.4C15.3,23.8,15.5,23.8,15.7,23.8z"/>
		<path class="st1" d="M38.5,23.4c-2.6-0.7-4.5-3-4.5-5.8c0-2.1,1.1-4,2.8-5c-1.3,1.2-2.1,2.9-2.1,4.8C34.7,20,36.3,22.3,38.5,23.4z
			"/>
		<path class="st2" d="M46,17.6c0,3.3-2.7,6-6,6c-0.5,0-1-0.1-1.5-0.2c-2.2-1.1-3.8-3.3-3.8-6c0-1.9,0.8-3.6,2.1-4.8
			c0.9-0.6,2-0.9,3.2-0.9C43.3,11.6,46,14.3,46,17.6z"/>
		<path class="st2" d="M54.3,56.1c0,7.9-6.4,14.3-14.3,14.3S25.7,64,25.7,56.1c0-4.8,2.4-9.1,6.1-11.7c0.6-0.4,1.2-0.8,1.8-1.1
			c1.9-1,4.1-1.5,6.4-1.5s4.5,0.5,6.4,1.5c0.6,0.3,1.2,0.7,1.8,1.1C51.9,46.9,54.3,51.2,54.3,56.1z"/>
		<path class="st0" d="M62.1,34.1c2.7-1.3,4.6-4.1,4.6-7.3c0-4.5-3.6-8.1-8.1-8.1s-8.1,3.6-8.1,8.1c0,3.2,1.9,5.9,4.5,7.2
			c-1,0.3-1.9,0.7-2.8,1.2c-0.6-5-4.3-9.1-9-10.4c2.8-1.2,4.7-4,4.7-7.3c0-4.4-3.6-8-8-8s-8,3.6-8,8c0,3.2,1.9,6,4.7,7.3
			c-4.8,1.3-8.4,5.4-9,10.4c-0.9-0.5-1.9-0.9-2.9-1.2c2.7-1.3,4.6-4,4.6-7.2c0-4.4-3.6-8-8-8c-0.5,0-1,0.4-1,1c0,0.5,0.5,1,1,1
			c3.3,0,6,2.7,6,6c0,3.3-2.7,6-6,6c-2.6,0-4.8-1.6-5.7-4c-0.2-0.6-0.3-1.3-0.3-1.9c0-0.4,0.1-0.8,0.1-1.2c0.1-0.5-0.2-1.1-0.8-1.2
			c-0.5-0.1-1.1,0.2-1.2,0.8c-0.1,0.5-0.2,1.1-0.2,1.7c0,0.9,0.2,1.7,0.4,2.6c0.7,2.1,2.3,3.8,4.3,4.7c-5.2,1.5-9,6.2-9,11.9
			c0,0.6,0.5,1,1,1s1-0.4,1-1c0-5.7,4.7-10.4,10.4-10.4c4.4,0,8.2,2.8,9.7,6.8c-4.5,2.9-7.6,8-7.6,13.8c0,9,7.3,16.3,16.3,16.3
			s16.3-7.3,16.3-16.3c0-5.8-3-10.9-7.6-13.8c1.5-3.9,5.3-6.8,9.7-6.8c5.7,0,10.4,4.7,10.4,10.4c0,0.6,0.4,1,1,1c0.5,0,1-0.4,1-1
			C70.9,40.4,67.2,35.6,62.1,34.1z M34,17.6c0-2.1,1.1-4,2.8-5c0.9-0.6,2-0.9,3.2-0.9c3.3,0,6,2.7,6,6s-2.7,6-6,6
			c-0.5,0-1-0.1-1.5-0.2C36,22.7,34,20.4,34,17.6z M54.3,56.1c0,7.9-6.4,14.3-14.3,14.3s-14.3-6.4-14.3-14.3c0-4.8,2.4-9.1,6.1-11.7
			c0.6-0.4,1.2-0.8,1.8-1.1c1.9-1,4.1-1.5,6.4-1.5c2.3,0,4.5,0.5,6.4,1.5c0.6,0.3,1.2,0.7,1.8,1.1C51.9,46.9,54.3,51.2,54.3,56.1z
			 M47,41.3c-2.1-1-4.5-1.6-7-1.6s-4.8,0.6-7,1.6c-0.7-1.8-1.9-3.5-3.4-4.8c0.1-5.6,4.7-10.2,10.4-10.2c5.7,0,10.3,4.5,10.4,10.2
			C48.9,37.8,47.7,39.5,47,41.3z M52.8,26.8c0-3.2,2.6-5.8,5.8-5.8c3.2,0,5.8,2.6,5.8,5.8s-2.6,5.8-5.8,5.8
			C55.4,32.6,52.8,30,52.8,26.8z"/>
		<g>
			<line class="st3" x1="47.5" y1="56.1" x2="49.8" y2="56.1"/>
			<polyline class="st3" points="30.2,56.1 41.6,56.1 41.8,56.1 			"/>
		</g>
	</g>
	<rect class="st4" width="80" height="80"/>
</g>
</svg>
