<?xml version="1.0" encoding="utf-8"?>
<!-- Generator: Adobe Illustrator 22.0.1, SVG Export Plug-In . SVG Version: 6.00 Build 0)  -->
<svg version="1.1" id="Layer_1" xmlns="http://www.w3.org/2000/svg" xmlns:xlink="http://www.w3.org/1999/xlink" x="0px" y="0px"
	 viewBox="0 0 80 80" style="enable-background:new 0 0 80 80;" xml:space="preserve">
<style type="text/css">
	.st0{fill:none;stroke:#DEE2E6;stroke-width:2.302;stroke-linecap:round;stroke-miterlimit:10;}
	.st1{fill:#F7F8F9;}
	.st2{fill:#DEE2E6;}
	.st3{fill:#3366FF;}
	.st4{opacity:0;fill:none;stroke:#FFFFFF;stroke-miterlimit:10;}
</style>
<g>
	<g>
		<path class="st0" d="M40.7,9c2,0.3,3.9,0.8,5.7,1.5"/>
		<g>
			<g>
				<path class="st0" d="M58.6,20.2c3,4.3,4.8,9.6,4.8,15.3c0,14.8-12,26.9-26.9,26.9S9.7,50.4,9.7,35.5s12-26.9,26.9-26.9"/>
				<polyline class="st0" points="37,21.4 37,37.7 37,37.7 53.3,37.7 				"/>
			</g>
			<g>
				<path class="st1" d="M58,45.7c-7.4,0-13.3,6-13.3,13.3c0,7.4,6,13.3,13.3,13.3c7.4,0,13.3-6,13.3-13.3
					C71.3,51.6,65.4,45.7,58,45.7z M62.6,63.6c0.3-0.3,0.8-0.3,1.1,0l1.5,1.5c0.3,0.3,0.3,0.8,0,1.1c-0.1,0.2-0.3,0.2-0.5,0.2
					s-0.4-0.1-0.5-0.2l-1.5-1.5C62.3,64.4,62.3,63.9,62.6,63.6z M65.3,52.8l-6.2,6.2l2.7,2.7c0.3,0.3,0.3,0.8,0,1.1
					C61.6,63,61.4,63,61.2,63c-0.2,0-0.4-0.1-0.5-0.2L58,60.1l-6.1,6.1c-0.2,0.2-0.3,0.2-0.5,0.2c-0.2,0-0.4-0.1-0.5-0.2
					c-0.3-0.3-0.3-0.8,0-1.1l6.1-6.1l-6.2-6.2c-0.3-0.3-0.3-0.8,0-1.1c0.3-0.3,0.8-0.3,1.1,0L58,58l6.2-6.2c0.3-0.3,0.8-0.3,1.1,0
					C65.6,52.1,65.6,52.5,65.3,52.8z"/>
				<path class="st2" d="M58,44.7c-7.9,0-14.3,6.4-14.3,14.3c0,7.9,6.4,14.3,14.3,14.3c7.9,0,14.3-6.4,14.3-14.3
					C72.3,51.1,65.9,44.7,58,44.7z M58,71.3c-6.8,0-12.3-5.5-12.3-12.3c0-6.8,5.5-12.3,12.3-12.3c6.8,0,12.3,5.5,12.3,12.3
					C70.3,65.8,64.8,71.3,58,71.3z"/>
			</g>
			<g>
				<g>
					<path class="st3" d="M65.3,52.8l-6.2,6.2l2.7,2.7c0.3,0.3,0.3,0.8,0,1.1C61.6,63,61.4,63,61.2,63c-0.2,0-0.4-0.1-0.5-0.2
						L58,60.1l-6.1,6.1c-0.2,0.2-0.3,0.2-0.5,0.2c-0.2,0-0.4-0.1-0.5-0.2c-0.3-0.3-0.3-0.8,0-1.1l6.1-6.1l-6.2-6.2
						c-0.3-0.3-0.3-0.8,0-1.1c0.3-0.3,0.8-0.3,1.1,0L58,58l6.2-6.2c0.3-0.3,0.8-0.3,1.1,0C65.6,52.1,65.6,52.5,65.3,52.8z"/>
					<line class="st3" x1="57.5" y1="58.5" x2="51.3" y2="52.3"/>
					<line class="st3" x1="61.2" y1="62.3" x2="58.5" y2="59.6"/>
				</g>
				<g>
					<line class="st3" x1="64.6" y1="65.7" x2="63.1" y2="64.2"/>
					<path class="st3" d="M65.1,66.2c-0.1,0.2-0.3,0.2-0.5,0.2s-0.4-0.1-0.5-0.2l-1.5-1.5c-0.3-0.3-0.3-0.8,0-1.1
						c0.3-0.3,0.8-0.3,1.1,0l1.5,1.5C65.4,65.4,65.4,65.9,65.1,66.2z"/>
				</g>
				<g>
					<line class="st3" x1="57.5" y1="59.6" x2="51.4" y2="65.7"/>
					<line class="st3" x1="64.7" y1="52.3" x2="58.5" y2="58.5"/>
				</g>
			</g>
		</g>
	</g>
	<rect class="st4" width="80" height="80"/>
</g>
</svg>
