<?xml version="1.0" encoding="utf-8"?>
<!-- Generator: Adobe Illustrator 22.0.1, SVG Export Plug-In . SVG Version: 6.00 Build 0)  -->
<svg version="1.1" id="Layer_1" xmlns="http://www.w3.org/2000/svg" xmlns:xlink="http://www.w3.org/1999/xlink" x="0px" y="0px"
	 viewBox="0 0 80 80" style="enable-background:new 0 0 80 80;" xml:space="preserve">
<style type="text/css">
	.st0{fill:none;}
	.st1{fill:#F7F8F9;}
	.st2{fill:#DEE2E6;}
	.st3{fill:#3366FF;}
	.st4{opacity:0;fill:none;stroke:#FFFFFF;stroke-miterlimit:10;}
</style>
<g>
	<g>
		<path class="st0" d="M38.5,22.4c-2.6-0.7-4.5-3-4.5-5.8c0-2.1,1.1-4,2.8-5c-1.3,1.2-2.1,2.9-2.1,4.8C34.7,19,36.3,21.3,38.5,22.4z
			"/>
		<path class="st0" d="M64.4,25.8c0,3.2-2.6,5.8-5.8,5.8c-3.2,0-5.8-2.6-5.8-5.8s2.6-5.8,5.8-5.8C61.8,20,64.4,22.6,64.4,25.8z"/>
		<path class="st1" d="M46,16.6c0,3.3-2.7,6-6,6c-0.5,0-1-0.1-1.5-0.2c-2.2-1.1-3.8-3.3-3.8-6c0-1.9,0.8-3.6,2.1-4.8
			c0.9-0.6,2-0.9,3.2-0.9C43.3,10.6,46,13.3,46,16.6z"/>
		<path class="st1" d="M48.2,43.3c-0.6-0.4-1.2-0.8-1.8-1.1c-1.9-1-4.1-1.5-6.4-1.5c-2.3,0-4.5,0.5-6.4,1.5
			c-0.6,0.3-1.2,0.7-1.8,1.1c-3.7,2.6-6.1,6.9-6.1,11.7c0,7.9,6.4,14.3,14.3,14.3S54.3,63,54.3,55.1C54.3,50.2,51.9,45.9,48.2,43.3z
			 M48.1,63.3c-0.1,0.2-0.3,0.2-0.5,0.2s-0.4-0.1-0.5-0.2l-1.7-1.7c-0.3-0.3-0.3-0.8,0-1.1c0.3-0.3,0.8-0.3,1.1,0l1.7,1.7
			C48.4,62.5,48.4,63,48.1,63.3z M48.3,47.9l-7.2,7.2l3.2,3.2c0.3,0.3,0.3,0.8,0,1.1c-0.1,0.1-0.3,0.2-0.5,0.2
			c-0.2,0-0.4-0.1-0.5-0.2L40,56.2l-7.1,7.1c-0.1,0.2-0.3,0.2-0.5,0.2s-0.4-0.1-0.5-0.2c-0.3-0.3-0.3-0.8,0-1.1l7.1-7.1l-7.2-7.2
			c-0.3-0.3-0.3-0.8,0-1.1c0.3-0.3,0.8-0.3,1.1,0l7.2,7.2l7.2-7.2c0.3-0.3,0.8-0.3,1.1,0C48.6,47.1,48.6,47.6,48.3,47.9z"/>
		<path class="st2" d="M62.1,33.1c2.7-1.3,4.6-4.1,4.6-7.3c0-4.5-3.6-8.1-8.1-8.1s-8.1,3.6-8.1,8.1c0,3.2,1.9,5.9,4.5,7.2
			c-1,0.3-1.9,0.7-2.8,1.2c-0.6-5-4.3-9.1-9-10.4c2.8-1.2,4.7-4,4.7-7.3c0-4.4-3.6-8-8-8s-8,3.6-8,8c0,3.2,1.9,6,4.7,7.3
			c-4.8,1.3-8.4,5.4-9,10.4c-0.9-0.5-1.9-0.9-2.9-1.2c2.7-1.3,4.6-4,4.6-7.2c0-4.4-3.6-8-8-8c-0.5,0-1,0.4-1,1c0,0.5,0.5,1,1,1
			c3.3,0,6,2.7,6,6c0,3.3-2.7,6-6,6c-2.6,0-4.8-1.6-5.7-4c-0.2-0.6-0.3-1.3-0.3-1.9c0-0.4,0.1-0.8,0.1-1.2c0.1-0.5-0.2-1.1-0.8-1.2
			c-0.5-0.1-1.1,0.2-1.2,0.8c-0.1,0.5-0.2,1.1-0.2,1.7c0,0.9,0.2,1.7,0.4,2.6c0.7,2.1,2.3,3.8,4.3,4.7c-5.2,1.5-9,6.2-9,11.9
			c0,0.6,0.5,1,1,1s1-0.4,1-1c0-5.7,4.7-10.4,10.4-10.4c4.4,0,8.2,2.8,9.7,6.8c-4.5,2.9-7.6,8-7.6,13.8c0,9,7.3,16.3,16.3,16.3
			s16.3-7.3,16.3-16.3c0-5.8-3-10.9-7.6-13.8c1.5-3.9,5.3-6.8,9.7-6.8c5.7,0,10.4,4.7,10.4,10.4c0,0.6,0.4,1,1,1c0.5,0,1-0.4,1-1
			C70.9,39.4,67.1,34.6,62.1,33.1z M34,16.6c0-2.1,1.1-4,2.8-5c0.9-0.6,2-0.9,3.2-0.9c3.3,0,6,2.7,6,6s-2.7,6-6,6
			c-0.5,0-1-0.1-1.5-0.2C35.9,21.7,34,19.4,34,16.6z M54.3,55.1c0,7.9-6.4,14.3-14.3,14.3S25.7,63,25.7,55.1c0-4.8,2.4-9.1,6.1-11.7
			c0.6-0.4,1.2-0.8,1.8-1.1c1.9-1,4.1-1.5,6.4-1.5c2.3,0,4.5,0.5,6.4,1.5c0.6,0.3,1.2,0.7,1.8,1.1C51.9,45.9,54.3,50.2,54.3,55.1z
			 M47,40.3c-2.1-1-4.5-1.6-7-1.6s-4.8,0.6-7,1.6c-0.7-1.8-1.9-3.5-3.4-4.8c0.1-5.6,4.7-10.2,10.4-10.2c5.7,0,10.3,4.5,10.4,10.2
			C48.9,36.9,47.7,38.5,47,40.3z M52.8,25.8c0-3.2,2.6-5.8,5.8-5.8c3.2,0,5.8,2.6,5.8,5.8s-2.6,5.8-5.8,5.8
			C55.4,31.6,52.8,29,52.8,25.8z"/>
		<path class="st3" d="M48.1,62.2l-1.7-1.7c-0.3-0.3-0.8-0.3-1.1,0c-0.3,0.3-0.3,0.8,0,1.1l1.7,1.7c0.2,0.2,0.3,0.2,0.5,0.2
			s0.4-0.1,0.5-0.2C48.4,63,48.4,62.5,48.1,62.2z"/>
		<path class="st3" d="M48.3,47.9l-7.2,7.2l3.2,3.2c0.3,0.3,0.3,0.8,0,1.1c-0.1,0.1-0.3,0.2-0.5,0.2c-0.2,0-0.4-0.1-0.5-0.2L40,56.2
			l-7.1,7.1c-0.1,0.2-0.3,0.2-0.5,0.2s-0.4-0.1-0.5-0.2c-0.3-0.3-0.3-0.8,0-1.1l7.1-7.1l-7.2-7.2c-0.3-0.3-0.3-0.8,0-1.1
			c0.3-0.3,0.8-0.3,1.1,0l7.2,7.2l7.2-7.2c0.3-0.3,0.8-0.3,1.1,0C48.6,47.1,48.6,47.6,48.3,47.9z"/>
		<path class="st2" d="M15.7,22.8c0.3,0,0.6-0.1,0.8-0.4c0.4-0.5,0.8-1,1.4-1.4c0.4-0.3,0.5-1,0.2-1.4c-0.3-0.4-1-0.5-1.4-0.2
			c-0.7,0.5-1.3,1.2-1.8,1.9c-0.3,0.5-0.2,1.1,0.2,1.4C15.3,22.8,15.5,22.8,15.7,22.8z"/>
	</g>
	<rect class="st4" width="80" height="80"/>
</g>
</svg>
