<?xml version="1.0" encoding="utf-8"?>
<!-- Generator: Adobe Illustrator 22.0.1, SVG Export Plug-In . SVG Version: 6.00 Build 0)  -->
<svg version="1.1" id="Layer_1" xmlns="http://www.w3.org/2000/svg" xmlns:xlink="http://www.w3.org/1999/xlink" x="0px" y="0px"
	 viewBox="0 0 80 80" style="enable-background:new 0 0 80 80;" xml:space="preserve">
<style type="text/css">
	.st0{fill:#3366FF;}
	.st1{fill:#DEE2E6;}
	.st2{fill:#F7F8F9;}
	.st3{opacity:0;fill:none;stroke:#FFFFFF;stroke-miterlimit:10;}
</style>
<g>
	<path class="st0" d="M36.7,16.7h-17c-0.4,0-0.8-0.3-0.8-0.8c0-0.4,0.3-0.8,0.8-0.8h17c0.4,0,0.8,0.3,0.8,0.8
		C37.5,16.4,37.1,16.7,36.7,16.7z"/>
</g>
<g>
	<g>
		<path class="st1" d="M34.9,53.3h-9.6c-0.6,0-1-0.4-1-1s0.4-1,1-1h9.6c0.6,0,1,0.4,1,1S35.5,53.3,34.9,53.3z"/>
	</g>
	<g>
		<path class="st1" d="M22.7,53.3H19c-0.6,0-1-0.4-1-1s0.4-1,1-1h3.7c0.6,0,1,0.4,1,1S23.3,53.3,22.7,53.3z"/>
	</g>
	<g>
		<path class="st1" d="M33,47H19.1c-0.6,0-1-0.4-1-1s0.4-1,1-1H33c0.6,0,1,0.4,1,1S33.6,47,33,47z"/>
	</g>
	<g>
		<path class="st1" d="M39.6,40.7H19.3c-0.6,0-1-0.4-1-1s0.4-1,1-1h20.3c0.6,0,1,0.4,1,1S40.2,40.7,39.6,40.7z"/>
	</g>
	<g>
		<path class="st1" d="M29.6,34.3H19.5c-0.6,0-1-0.4-1-1s0.4-1,1-1h10.1c0.6,0,1,0.4,1,1S30.2,34.3,29.6,34.3z"/>
	</g>
	<g>
		<path class="st0" d="M26.2,21.2h-6.5c-0.4,0-0.8-0.3-0.8-0.8s0.3-0.8,0.8-0.8h6.5c0.4,0,0.8,0.3,0.8,0.8S26.6,21.2,26.2,21.2z"/>
	</g>
	<g>
		<path class="st1" d="M53.9,20.9h-1.3l-9.1-10L43,10.5v3.4c0,0.5-0.5,1-1,1s-1-0.5-1-1V8c0-0.6,0.5-1,1-1s1,0.4,1,1V9l0.4,0.4
			L53.9,20.9z"/>
	</g>
	<g>
		<path class="st2" d="M52.5,20.9h-7.6c-0.6,0-1.2-0.3-1.5-0.8v-9.2L52.5,20.9z"/>
		<path class="st2" d="M53.8,23.7H46c-0.8,0-1.6-0.4-2-1c0.3,0.1,0.6,0.1,0.9,0.1h8.9L53.8,23.7z"/>
	</g>
	<path class="st1" d="M40,64.5c0,0.5-0.5,1-1,1H13.7c-1.9,0-3.5-1.5-3.5-3.5V27.2c0-0.6,0.5-1,1-1c0.6,0,1,0.4,1,1v34.8
		c0,0.8,0.7,1.5,1.5,1.5H39C39.5,63.5,40,64,40,64.5z"/>
	<g>
		<path class="st1" d="M46.5,47H37c-0.6,0-1-0.4-1-1s0.4-1,1-1h9.5c0.6,0,1,0.4,1,1S47.1,47,46.5,47z"/>
	</g>
	<g>
		<path class="st1" d="M47,40.7h-3.3c-0.6,0-1-0.4-1-1s0.4-1,1-1H47c0.6,0,1,0.4,1,1S47.5,40.7,47,40.7z"/>
	</g>
	<g>
		<path class="st1" d="M46.9,34.3H33.8c-0.6,0-1-0.4-1-1s0.4-1,1-1h13.1c0.6,0,1,0.4,1,1S47.5,34.3,46.9,34.3z"/>
	</g>
	<g>
		<path class="st1" d="M56,42c0,0.6-0.4,1-1,1h0c-0.5,0-1-0.4-1-1l-0.2-18.3l0-0.9h-8.9c-0.3,0-0.6,0-0.9-0.1
			c-1.7-0.4-2.9-1.9-3-3.7v-2.5c0-0.6,0.5-1,1-1s1,0.4,1,1V19c0,0.4,0.1,0.8,0.4,1.1c0.3,0.5,0.9,0.8,1.5,0.8h8.9L43.4,9.5L43,9V8
			c0-0.6-0.5-1-1-1s-1,0.4-1,1v1H13.7c-0.8,0-1.5,0.7-1.5,1.5v7.3c0,0.6-0.4,1-1,1c-0.5,0-1-0.4-1-1v-7.3c0-1.9,1.6-3.5,3.5-3.5H42
			c0.3,0,0.5,0.1,0.7,0.3l12.7,13.9l0,0c0,0,0.1,0.1,0.1,0.1c0,0.1,0.1,0.1,0.1,0.2c0,0.1,0.1,0.2,0.1,0.3v0L56,42z"/>
	</g>
	<g>
		<g>
			<path class="st2" d="M55.5,45.6c-7.4,0-13.3,6-13.3,13.3c0,7.4,6,13.3,13.3,13.3c7.4,0,13.3-6,13.3-13.3
				C68.8,51.6,62.8,45.6,55.5,45.6z M60.1,63.6c0.3-0.3,0.8-0.3,1.1,0l1.5,1.5c0.3,0.3,0.3,0.8,0,1.1c-0.1,0.2-0.3,0.2-0.5,0.2
				s-0.4-0.1-0.5-0.2l-1.5-1.5C59.8,64.4,59.8,63.9,60.1,63.6z M62.8,52.8L56.5,59l2.7,2.7c0.3,0.3,0.3,0.8,0,1.1
				c-0.1,0.1-0.3,0.2-0.5,0.2c-0.2,0-0.4-0.1-0.5-0.2l-2.7-2.7l-6.1,6.1c-0.2,0.2-0.3,0.2-0.5,0.2c-0.2,0-0.4-0.1-0.5-0.2
				c-0.3-0.3-0.3-0.8,0-1.1l6.1-6.1l-6.2-6.2c-0.3-0.3-0.3-0.8,0-1.1c0.3-0.3,0.8-0.3,1.1,0l6.2,6.2l6.2-6.2c0.3-0.3,0.8-0.3,1.1,0
				C63.1,52,63.1,52.5,62.8,52.8z"/>
			<path class="st1" d="M55.5,44.6c-7.9,0-14.3,6.4-14.3,14.3c0,7.9,6.4,14.3,14.3,14.3c7.9,0,14.3-6.4,14.3-14.3
				C69.8,51,63.4,44.6,55.5,44.6z M55.5,71.3c-6.8,0-12.3-5.5-12.3-12.3c0-6.8,5.5-12.3,12.3-12.3c6.8,0,12.3,5.5,12.3,12.3
				C67.8,65.8,62.3,71.3,55.5,71.3z"/>
		</g>
		<g>
			<g>
				<path class="st0" d="M62.8,52.8L56.5,59l2.7,2.7c0.3,0.3,0.3,0.8,0,1.1c-0.1,0.1-0.3,0.2-0.5,0.2c-0.2,0-0.4-0.1-0.5-0.2
					l-2.7-2.7l-6.1,6.1c-0.2,0.2-0.3,0.2-0.5,0.2c-0.2,0-0.4-0.1-0.5-0.2c-0.3-0.3-0.3-0.8,0-1.1l6.1-6.1l-6.2-6.2
					c-0.3-0.3-0.3-0.8,0-1.1c0.3-0.3,0.8-0.3,1.1,0l6.2,6.2l6.2-6.2c0.3-0.3,0.8-0.3,1.1,0C63.1,52,63.1,52.5,62.8,52.8z"/>
				<line class="st0" x1="55" y1="58.5" x2="48.7" y2="52.3"/>
				<line class="st0" x1="58.7" y1="62.2" x2="56" y2="59.5"/>
			</g>
			<g>
				<line class="st0" x1="62.1" y1="65.6" x2="60.6" y2="64.1"/>
				<path class="st0" d="M62.6,66.2c-0.1,0.2-0.3,0.2-0.5,0.2s-0.4-0.1-0.5-0.2l-1.5-1.5c-0.3-0.3-0.3-0.8,0-1.1
					c0.3-0.3,0.8-0.3,1.1,0l1.5,1.5C62.9,65.4,62.9,65.9,62.6,66.2z"/>
			</g>
			<g>
				<line class="st0" x1="55" y1="59.6" x2="48.9" y2="65.6"/>
				<line class="st0" x1="62.2" y1="52.3" x2="56" y2="58.5"/>
			</g>
		</g>
	</g>
</g>
<rect class="st3" width="80" height="80"/>
</svg>
