<?xml version="1.0" encoding="utf-8"?>
<!-- Generator: Adobe Illustrator 22.0.1, SVG Export Plug-In . SVG Version: 6.00 Build 0)  -->
<svg version="1.1" id="Layer_1" xmlns="http://www.w3.org/2000/svg" xmlns:xlink="http://www.w3.org/1999/xlink" x="0px" y="0px"
	 viewBox="0 0 80 80" style="enable-background:new 0 0 80 80;" xml:space="preserve">
<style type="text/css">
	.st0{fill:#F7F8F9;}
	.st1{fill:#DEE2E6;}
	.st2{fill:#3366FF;}
	.st3{opacity:0;fill:none;stroke:#FFFFFF;stroke-miterlimit:10;}
</style>
<g>
	<g>
		<path class="st0" d="M63,54.1H23.6c-1.1,0-2-0.9-2-2V24.3c0-1.1,0.9-2,2-2H63c1.1,0,2,0.9,2,2v27.8C65,53.2,64.1,54.1,63,54.1z"/>
		<g>
			<path class="st1" d="M65.3,22.6v29.5c0,1.6-1.3,2.9-2.9,2.9H21.7c-1.6,0-2.9-1.3-2.9-2.9V22.6c0-1.6,1.3-2.9,2.9-2.9h5.9
				c0.5,0,0.9,0.4,0.9,0.9c0,0.5-0.4,0.9-0.9,0.9h-5.9c-0.6,0-1.1,0.5-1.1,1.1v29.5c0,0.6,0.5,1.1,1.1,1.1h40.7
				c0.6,0,1.1-0.5,1.1-1.1V22.6c0-0.6-0.5-1.1-1.1-1.1H32.5c-0.6,0-1-0.4-1-0.9c0-0.5,0.5-0.9,1-0.9h29.9C64,19.7,65.3,21,65.3,22.6
				z"/>
			<path class="st1" d="M57.1,19.7h-1.9l0-6.1c0-0.4-0.3-0.5-0.4-0.6c-0.1,0-0.4-0.1-0.7,0.1L47,19.7h-2.8l8.6-8
				c0.8-0.7,1.8-0.9,2.8-0.5c1,0.4,1.6,1.3,1.6,2.4L57.1,19.7z"/>
			<path class="st1" d="M42.8,60.4c0,0.5-0.5,0.9-1,0.9H18.6c-1.6,0-2.9-1.3-2.9-2.9V28.9c0-1.6,1.3-2.9,2.9-2.9h0.2v1.8h-0.2
				c-0.6,0-1.1,0.5-1.1,1.1v29.5c0,0.6,0.5,1.1,1.1,1.1h23.1C42.3,59.5,42.8,59.9,42.8,60.4z"/>
			<path class="st1" d="M62.2,55v3.4c0,1.6-1.3,2.9-2.9,2.9h-5.9c-0.5,0-0.9-0.4-0.9-0.9s0.4-0.9,0.9-0.9h5.9c0.6,0,1.1-0.5,1.1-1.1
				V55H62.2z"/>
			<path class="st1" d="M49.6,59.5h-5c-0.5,0-0.9,0.4-0.9,0.9s0.4,0.9,0.9,0.9h5c0.5,0,0.9-0.4,0.9-0.9S50.1,59.5,49.6,59.5z"/>
			<path class="st1" d="M36.8,61.3l-8.6,8c-0.5,0.5-1.1,0.7-1.8,0.7c-0.3,0-0.7-0.1-1-0.2c-1-0.4-1.5-1.3-1.5-2.4l0-6.1h1.9l0,6.1
				c0,0.4,0.3,0.5,0.4,0.6c0.1,0,0.4,0.1,0.7-0.1l7.1-6.6H36.8z"/>
		</g>
		<g>
			<path class="st2" d="M41.2,28.2c-3.2,0-5.8,2.6-5.8,5.8c0,0.5,0.4,0.9,0.9,0.9c0.4,0,0.8-0.3,0.9-0.6c0.1-2.4,1.8-4.3,4-4.3
				c2.2,0,4,1.8,4,4c0,1-0.3,1.9-1,2.6l-2.8,2.9c-0.9,1-1.4,2.5-1.4,4c0.3,0.7,1.5,0.7,1.7,0c0.1-1.2,0.5-2.3,1.2-3l2.6-2.6
				c0.9-1,1.4-2.4,1.4-3.7C47,30.8,44.4,28.2,41.2,28.2z"/>
			<path class="st2" d="M40.8,45.3c-0.3,0-0.5,0.1-0.7,0.3c-0.1,0.2-0.2,0.4-0.2,0.7c0,0.3,0.1,0.5,0.3,0.7c0.4,0.4,1.1,0.4,1.4,0
				l0.1-0.1c0.2-0.2,0.3-0.4,0.3-0.7c0-0.3-0.1-0.5-0.3-0.7C41.4,45.4,41.1,45.3,40.8,45.3z"/>
		</g>
	</g>
	<rect class="st3" width="80" height="80"/>
</g>
</svg>
