<?xml version="1.0" encoding="utf-8"?>
<!-- Generator: Adobe Illustrator 22.0.1, SVG Export Plug-In . SVG Version: 6.00 Build 0)  -->
<svg version="1.1" id="Layer_1" xmlns="http://www.w3.org/2000/svg" xmlns:xlink="http://www.w3.org/1999/xlink" x="0px" y="0px"
	 viewBox="0 0 80 80" style="enable-background:new 0 0 80 80;" xml:space="preserve">
<style type="text/css">
	.st0{fill:#DEE2E6;}
	.st1{fill:#3366FF;}
	.st2{fill:#FFFFFF;}
	.st3{fill:#F7F8F9;}
	.st4{opacity:0;fill:none;stroke:#DEE2E6;stroke-miterlimit:10;}
</style>
<g>
	<g>
		<path class="st0" d="M35.5,57.1h-9.6c-0.6,0-1-0.4-1-1s0.4-1,1-1h9.6c0.6,0,1,0.4,1,1S36,57.1,35.5,57.1z"/>
	</g>
	<g>
		<path class="st0" d="M23.3,57.1h-3.7c-0.6,0-1-0.4-1-1s0.4-1,1-1h3.7c0.6,0,1,0.4,1,1S23.8,57.1,23.3,57.1z"/>
	</g>
	<g>
		<path class="st0" d="M47.1,50.8h-9.5c-0.6,0-1-0.4-1-1s0.4-1,1-1h9.5c0.6,0,1,0.4,1,1S47.7,50.8,47.1,50.8z"/>
	</g>
	<g>
		<path class="st0" d="M33.6,50.8H19.7c-0.6,0-1-0.4-1-1s0.4-1,1-1h13.9c0.6,0,1,0.4,1,1S34.2,50.8,33.6,50.8z"/>
	</g>
	<g>
		<path class="st0" d="M47.6,44.4h-3.3c-0.6,0-1-0.4-1-1s0.4-1,1-1h3.3c0.6,0,1,0.4,1,1S48.1,44.4,47.6,44.4z"/>
	</g>
	<g>
		<path class="st0" d="M40.2,44.4H19.9c-0.6,0-1-0.4-1-1s0.4-1,1-1h20.3c0.6,0,1,0.4,1,1S40.8,44.4,40.2,44.4z"/>
	</g>
	<g>
		<path class="st0" d="M47.5,38.1H34.4c-0.6,0-1-0.4-1-1s0.4-1,1-1h13.1c0.6,0,1,0.4,1,1S48.1,38.1,47.5,38.1z"/>
	</g>
	<g>
		<path class="st0" d="M30.2,38.1H20.1c-0.6,0-1-0.4-1-1s0.4-1,1-1h10.1c0.6,0,1,0.4,1,1S30.8,38.1,30.2,38.1z"/>
	</g>
	<g>
		<path class="st1" d="M37.3,20.5h-17c-0.4,0-0.8-0.3-0.8-0.8s0.3-0.8,0.8-0.8h17c0.4,0,0.8,0.3,0.8,0.8S37.7,20.5,37.3,20.5z"/>
	</g>
	<g>
		<path class="st1" d="M26.8,25h-6.5c-0.4,0-0.8-0.3-0.8-0.8s0.3-0.8,0.8-0.8h6.5c0.4,0,0.8,0.3,0.8,0.8S27.2,25,26.8,25z"/>
	</g>
	<g>
		<path class="st2" d="M42.6,11.7v11.1c0.1,1.6,1.3,2.8,2.9,2.8h9.9"/>
	</g>
	<g>
		<path class="st3" d="M44,13.1v11.8c0,1.4,1.2,2.6,2.6,2.6h9v-2"/>
	</g>
	<g>
		<path class="st0" d="M55.4,26.6h-9.9c-2.1,0-3.8-1.7-3.9-3.8l0-2.5c0-0.6,0.4-1,1-1s1,0.4,1,1v2.4c0,1,0.9,1.8,1.9,1.8h9.9
			c0.6,0,1,0.4,1,1S55.9,26.6,55.4,26.6z"/>
	</g>
	<g>
		<path class="st0" d="M42.6,18.7c-0.6,0-1-0.4-1-1v-6c0-0.6,0.4-1,1-1s1,0.4,1,1v6C43.6,18.3,43.2,18.7,42.6,18.7z"/>
	</g>
	<g>
		<path class="st0" d="M11.8,25.9c-0.6,0-1-0.4-1-1v-0.6c0-0.6,0.4-1,1-1s1,0.4,1,1v0.6C12.8,25.5,12.3,25.9,11.8,25.9z"/>
	</g>
	<g>
		<path class="st0" d="M39.6,69.3H14.2c-1.9,0-3.5-1.6-3.5-3.5V31c0-0.6,0.4-1,1-1s1,0.4,1,1v34.8c0,0.8,0.7,1.5,1.5,1.5h25.3
			c0.6,0,1,0.4,1,1S40.1,69.3,39.6,69.3z"/>
	</g>
	<g>
		<path class="st0" d="M55.6,46.8c-0.5,0-1-0.4-1-1L54.4,26L42.2,12.7H14.2c-0.8,0-1.5,0.7-1.5,1.5v7.4c0,0.6-0.4,1-1,1s-1-0.4-1-1
			v-7.4c0-1.9,1.6-3.5,3.5-3.5h28.4c0.3,0,0.5,0.1,0.7,0.3L56.1,25c0.2,0.2,0.3,0.4,0.3,0.7l0.2,20.2C56.6,46.3,56.2,46.8,55.6,46.8
			C55.6,46.8,55.6,46.8,55.6,46.8z"/>
	</g>
	<g>
		<path class="st3" d="M50.5,66.2L46.2,68c-0.3,0.1-0.6,0-0.8-0.2c-0.2-0.2-0.3-0.5-0.2-0.8l1.7-4.4c0.2-0.5,0.5-0.9,0.8-1.2
			l16.1-16.1c0.2-0.2,0.5-0.3,0.7-0.3c0.3,0,0.5,0.1,0.7,0.3l2.5,2.5c0.4,0.4,0.4,1.1,0,1.5L51.8,65.4C51.4,65.8,51,66,50.5,66.2z"
			/>
		<path class="st0" d="M45.9,69c-0.4,0-0.9-0.2-1.2-0.5c-0.5-0.5-0.6-1.2-0.4-1.8l1.7-4.4c0.2-0.6,0.6-1.1,1-1.6l16.1-16.1
			c0.8-0.8,2.1-0.8,2.9,0l2.5,2.5c0.8,0.8,0.8,2.1,0,2.9L52.5,66.1c-0.5,0.5-1,0.8-1.6,1l-4.4,1.7C46.3,69,46.1,69,45.9,69z
			 M64.7,46L48.5,62.1c-0.3,0.3-0.5,0.6-0.6,0.9l-1.5,3.8l3.8-1.5c0,0,0,0,0,0c0.3-0.1,0.6-0.3,0.9-0.6l16.1-16.1L64.7,46z"/>
	</g>
	<rect class="st4" width="80" height="80"/>
</g>
</svg>
