<?xml version="1.0" encoding="UTF-8"?>
<svg width="24px" height="24px" viewBox="0 0 24 24" version="1.1" xmlns="http://www.w3.org/2000/svg" xmlns:xlink="http://www.w3.org/1999/xlink">
    <!-- Generator: Sketch 53 (72520) - https://sketchapp.com -->
    <title>icon / main / pbq</title>
    <desc>Created with Sketch.</desc>
    <g id="icon-/-main-/-pbq" stroke="none" stroke-width="1" fill="none" fill-rule="evenodd">
        <rect id="Rectangle-Copy-5" x="0" y="0" width="24" height="24"></rect>
        <path d="M10.75,16.25 L10.75,7.75 L10,7.75 C7.65278981,7.75 5.75,9.65278981 5.75,12 C5.75,14.3472102 7.65278981,16.25 10,16.25 L10.75,16.25 Z M12.25,16.25 L13,16.25 C15.3472102,16.25 17.25,14.3472102 17.25,12 C17.25,9.65278981 15.3472102,7.75 13,7.75 L12.25,7.75 L12.25,16.25 Z M10.75,6.25 L10.75,4 C10.75,3.58578644 11.0857864,3.25 11.5,3.25 C11.9142136,3.25 12.25,3.58578644 12.25,4 L12.25,6.25 L13,6.25 C16.1756373,6.25 18.75,8.82436269 18.75,12 C18.75,15.1756373 16.1756373,17.75 13,17.75 L12.25,17.75 L12.25,20 C12.25,20.4142136 11.9142136,20.75 11.5,20.75 C11.0857864,20.75 10.75,20.4142136 10.75,20 L10.75,17.75 L10,17.75 C6.82436269,17.75 4.25,15.1756373 4.25,12 C4.25,8.82436269 6.82436269,6.25 10,6.25 L10.75,6.25 Z" id="Combined-Shape" fill="#ECF0F3"></path>
    </g>
</svg>
