<?xml version="1.0" encoding="UTF-8"?>
<svg width="24px" height="24px" viewBox="0 0 24 24" version="1.1" xmlns="http://www.w3.org/2000/svg" xmlns:xlink="http://www.w3.org/1999/xlink">
    <!-- Generator: Sketch 53 (72520) - https://sketchapp.com -->
    <title>icon / main / Security</title>
    <desc>Created with Sketch.</desc>
    <g id="icon-/-main-/-Security" stroke="none" stroke-width="1" fill="none" fill-rule="evenodd">
        <rect id="Rectangle-Copy-5" x="0" y="0" width="24" height="24"></rect>
        <path d="M12.3129699,19.6815789 C12.1142954,19.772807 11.8857046,19.772807 11.6870301,19.6815789 C11.3255892,19.5156112 10.7494341,19.1376669 10.0343629,18.4809688 C8.87941335,17.4203009 7.73466339,15.9484795 6.66251294,13.9782673 L6.67463215,14.0014833 C5.62656834,12.0764682 4.9482674,10.415323 4.5680011,9.01842642 C4.33192793,8.15121883 4.25,7.54929937 4.25,7.21428571 C4.25,6.80007215 4.58578644,6.46428571 5,6.46428571 C6.88115729,6.46428571 8.48557941,5.91174238 9.82456857,4.98947944 C10.292199,4.66738708 10.6922269,4.32297528 11.0235913,3.98062174 C11.216667,3.78114304 11.3400888,3.63237568 11.3930593,3.55940604 C11.6925338,3.14686465 12.3074662,3.14686465 12.6069407,3.55940604 C12.6599112,3.63237568 12.783333,3.78114304 12.9764087,3.98062174 C13.3077731,4.32297528 13.707801,4.66738708 14.1754314,4.98947944 C15.5144206,5.91174238 17.1188427,6.46428571 19,6.46428571 C19.4142136,6.46428571 19.75,6.80007215 19.75,7.21428571 C19.75,7.54929937 19.6680721,8.15121883 19.4319989,9.01842642 C19.0517326,10.415323 18.3734317,12.0764682 17.3253678,14.0014833 C16.2653366,15.9484795 15.1205866,17.4203009 13.9656371,18.4809688 C13.2505659,19.1376669 12.6744108,19.5156112 12.3129699,19.6815789 Z M12.9510296,17.376174 C13.98358,16.4279134 15.0263301,15.0872348 16.0079655,13.2842309 C17.0015683,11.4592461 17.6357674,9.90610554 17.9846678,8.62443072 C18.0570669,8.35847473 18.1116995,8.12745535 18.151984,7.93129747 C16.3075871,7.7861664 14.6959741,7.16939684 13.3245686,6.22480627 C12.7829444,5.85174881 12.3418929,5.47647345 12,5.1364446 C11.6581071,5.47647345 11.2170556,5.85174881 10.6754314,6.22480627 C9.30402588,7.16939684 7.69241292,7.7861664 5.84801602,7.93129747 C5.88830049,8.12745535 5.9429331,8.35847473 6.01533223,8.62443072 C6.3642326,9.90610554 6.99843166,11.4592461 8.00415373,13.3074469 L7.99203452,13.2842309 C8.97366995,15.0872348 10.01642,16.4279134 11.0489704,17.376174 C11.3974226,17.6961811 11.7172395,17.9452978 12,18.1317166 C12.2827605,17.9452978 12.6025774,17.6961811 12.9510296,17.376174 Z" id="Stroke-378" fill="#ffffff"></path>
    </g>
</svg>
