<?xml version="1.0" encoding="UTF-8"?>
<svg viewBox="0 0 162 45" version="1.1" xmlns="http://www.w3.org/2000/svg" xmlns:xlink="http://www.w3.org/1999/xlink">
    <g id="Webwallet-testnet" stroke="none" stroke-width="1" fill="none" fill-rule="evenodd">
        <g id="Group-27-Copy-9" fill-rule="nonzero">
            <g id="Group-21">
                <rect id="Rectangle-19" fill="#3366FF" x="0" y="0" width="36" height="45" rx="4"></rect>
                <g id="Group-Copy" transform="translate(6.222222, 7.363636)" fill="#FFFFFF">
                    <path d="M16.8521558,20.3183589 C15.1332873,21.5052789 13.0605203,22.1984331 10.8291478,22.1984331 C4.88419861,22.1984331 0.0650737205,17.2782415 0.0650737205,11.2086148 C0.0650737205,8.93072512 0.744188939,6.81468554 1.9064643,5.05981136 L4.89912153,8.11548041 C4.43333069,9.04412007 4.16545202,10.0936477 4.16545202,11.2086148 C4.16545202,14.9661336 7.14881301,18.0120616 10.8291478,18.0120616 C11.921212,18.0120616 12.9491811,17.738565 13.8587454,17.2630056 L16.8509133,20.3181751 C17.9923944,19.5296557 18.9785304,18.523338 19.7506081,17.3579177 L16.7586848,14.3032477 C17.2247202,13.3741085 17.4928435,12.3243311 17.4928435,11.2088645 C17.4928435,7.4513457 14.5094826,4.40541763 10.8291478,4.40541763 C9.73659426,4.40541763 8.70838055,4.67891425 7.79832702,5.1549732 L4.80566979,2.09955392 C6.52474135,0.912403762 8.59755952,0.219046129 10.8291478,0.219046129 C16.7738523,0.219046129 21.5932218,5.13898801 21.5932218,11.2086148 C21.5932218,13.4868717 20.9142533,15.6031843 19.7516319,17.3581408 L20.9916569,18.6249153 C21.7930911,19.4424045 21.7930911,20.7679208 20.9916569,21.5849104 C20.1912012,22.4028991 18.8938856,22.4028991 18.0929407,21.5851602 L16.8521558,20.3183589 Z" id="Combined-Shape"></path>
                </g>
            </g>
        </g>
        <path d="M5.55664062,40 L4.49707031,40 L4.49707031,35.8847656 L3.14013672,35.8847656 L3.14013672,35.0029297 L6.91357422,35.0029297 L6.91357422,35.8847656 L5.55664062,35.8847656 L5.55664062,40 Z M10.6605469,40 L7.78261719,40 L7.78261719,35.0029297 L10.6605469,35.0029297 L10.6605469,35.8710938 L8.8421875,35.8710938 L8.8421875,36.9682617 L10.534082,36.9682617 L10.534082,37.8364258 L8.8421875,37.8364258 L8.8421875,39.125 L10.6605469,39.125 L10.6605469,40 Z M14.7527344,38.6123047 C14.7527344,39.0634788 14.5903825,39.418944 14.2656738,39.6787109 C13.9409652,39.9384779 13.4892282,40.0683594 12.9104492,40.0683594 C12.3772434,40.0683594 11.9055685,39.9681 11.4954102,39.7675781 L11.4954102,38.7832031 C11.8326514,38.9335945 12.118049,39.0395505 12.3516113,39.1010742 C12.5851737,39.162598 12.7987946,39.1933594 12.9924805,39.1933594 C13.2249035,39.1933594 13.4032058,39.1489262 13.5273926,39.0600586 C13.6515794,38.971191 13.7136719,38.8390308 13.7136719,38.6635742 C13.7136719,38.565592 13.6863284,38.4784346 13.6316406,38.4020996 C13.5769529,38.3257646 13.4966314,38.252279 13.3906738,38.1816406 C13.2847163,38.1110023 13.0688167,37.9982104 12.7429688,37.8432617 C12.4376287,37.6997063 12.2086271,37.5618496 12.055957,37.4296875 C11.903287,37.2975254 11.7813807,37.1437183 11.6902344,36.9682617 C11.5990881,36.7928051 11.5535156,36.587729 11.5535156,36.3530273 C11.5535156,35.9109678 11.7033351,35.5634778 12.0029785,35.3105469 C12.3026219,35.0576159 12.7167617,34.9311523 13.2454102,34.9311523 C13.5051771,34.9311523 13.7529773,34.9619138 13.9888184,35.0234375 C14.2246594,35.0849612 14.4713203,35.1715489 14.7288086,35.2832031 L14.3870117,36.1069336 C14.1204088,35.997558 13.899952,35.9212242 13.7256348,35.8779297 C13.5513175,35.8346352 13.3798511,35.8129883 13.2112305,35.8129883 C13.0107086,35.8129883 12.8569016,35.8597001 12.7498047,35.953125 C12.6427078,36.0465499 12.5891602,36.1684563 12.5891602,36.3188477 C12.5891602,36.4122726 12.6108071,36.4937334 12.6541016,36.5632324 C12.6973961,36.6327315 12.7663244,36.6999508 12.8608887,36.7648926 C12.9554529,36.8298343 13.1793277,36.9466137 13.5325195,37.1152344 C13.9996443,37.3385428 14.3197908,37.5624175 14.4929688,37.7868652 C14.6661467,38.011313 14.7527344,38.2864567 14.7527344,38.6123047 Z M17.6862305,40 L16.6266602,40 L16.6266602,35.8847656 L15.2697266,35.8847656 L15.2697266,35.0029297 L19.0431641,35.0029297 L19.0431641,35.8847656 L17.6862305,35.8847656 L17.6862305,40 Z M24.3453125,40 L22.9986328,40 L20.8248047,36.2197266 L20.794043,36.2197266 C20.8373375,36.8873731 20.8589844,37.3636053 20.8589844,37.6484375 L20.8589844,40 L19.912207,40 L19.912207,35.0029297 L21.2486328,35.0029297 L23.419043,38.7456055 L23.4429688,38.7456055 C23.4087889,38.0961882 23.3916992,37.6370456 23.3916992,37.3681641 L23.3916992,35.0029297 L24.3453125,35.0029297 L24.3453125,40 Z M28.5810547,40 L25.703125,40 L25.703125,35.0029297 L28.5810547,35.0029297 L28.5810547,35.8710938 L26.7626953,35.8710938 L26.7626953,36.9682617 L28.4545899,36.9682617 L28.4545899,37.8364258 L26.7626953,37.8364258 L26.7626953,39.125 L28.5810547,39.125 L28.5810547,40 Z M31.6512695,40 L30.5916992,40 L30.5916992,35.8847656 L29.2347656,35.8847656 L29.2347656,35.0029297 L33.0082031,35.0029297 L33.0082031,35.8847656 L31.6512695,35.8847656 L31.6512695,40 Z" id="TESTNET" fill="#FFFFFF"></path>
        <path d="M57.5976562,26.484375 L59.7851562,15.78125 L62.2363281,15.78125 L58.9550781,30 L56.5917969,30 L53.8867188,19.6191406 L51.1230469,30 L48.75,30 L45.46875,15.78125 L47.9199219,15.78125 L50.1269531,26.4648438 L52.8417969,15.78125 L54.9121094,15.78125 L57.5976562,26.484375 Z M72.3535156,23.6523438 L66.5136719,23.6523438 L66.5136719,28.0273438 L73.3398438,28.0273438 L73.3398438,30 L64.0429688,30 L64.0429688,15.78125 L73.2714844,15.78125 L73.2714844,17.7734375 L66.5136719,17.7734375 L66.5136719,21.6992188 L72.3535156,21.6992188 L72.3535156,23.6523438 Z M75.3515625,30 L75.3515625,15.78125 L80.2246094,15.78125 C81.8326903,15.78125 83.0566364,16.1035124 83.8964844,16.7480469 C84.7363323,17.3925813 85.15625,18.3528582 85.15625,19.6289062 C85.15625,20.2799512 84.9804705,20.8658828 84.6289062,21.3867188 C84.277342,21.9075547 83.7630242,22.3111965 83.0859375,22.5976562 C83.8541705,22.8059906 84.4482401,23.1982393 84.8681641,23.7744141 C85.288088,24.3505888 85.4980469,25.0423137 85.4980469,25.8496094 C85.4980469,27.1842515 85.0699913,28.2096318 84.2138672,28.9257812 C83.3577431,29.6419307 82.1321694,30 80.5371094,30 L75.3515625,30 Z M77.8222656,23.5839844 L77.8222656,28.0273438 L80.5664062,28.0273438 C81.3411497,28.0273438 81.9466124,27.8352884 82.3828125,27.4511719 C82.8190126,27.0670554 83.0371094,26.5332065 83.0371094,25.8496094 C83.0371094,24.3717374 82.2819086,23.6165366 80.7714844,23.5839844 L77.8222656,23.5839844 Z M77.8222656,21.7675781 L80.2441406,21.7675781 C81.0123736,21.7675781 81.6129536,21.5934262 82.0458984,21.2451172 C82.4788433,20.8968082 82.6953125,20.403649 82.6953125,19.765625 C82.6953125,19.0624965 82.4951192,18.5546891 82.0947266,18.2421875 C81.6943339,17.9296859 81.0709678,17.7734375 80.2246094,17.7734375 L77.8222656,17.7734375 L77.8222656,21.7675781 Z" id="WEBWALLET" fill="#000000"></path>
        <polygon id="Path" fill="#666666" points="99.1210938 26.484375 101.308594 15.78125 103.759766 15.78125 100.478516 30 98.1152344 30 95.4101562 19.6191406 92.6464844 30 90.2734375 30 86.9921875 15.78125 89.4433594 15.78125 91.6503906 26.4648438 94.3652344 15.78125 96.4355469 15.78125"></polygon>
        <path d="M113.525391,26.6894531 L108.017578,26.6894531 L106.865234,30 L104.296875,30 L109.667969,15.78125 L111.884766,15.78125 L117.265625,30 L114.6875,30 L113.525391,26.6894531 Z M108.710938,24.6972656 L112.832031,24.6972656 L110.771484,18.7988281 L108.710938,24.6972656 Z" id="Combined-Shape" fill="#666666"></path>
        <polygon id="Path" fill="#666666" points="121.347656 28.0273438 127.802734 28.0273438 127.802734 30 118.876953 30 118.876953 15.78125 121.347656 15.78125"></polygon>
        <polygon id="Path" fill="#666666" points="132.167969 28.0273438 138.623047 28.0273438 138.623047 30 129.697266 30 129.697266 15.78125 132.167969 15.78125"></polygon>
        <polygon id="Path" fill="#666666" points="148.828125 23.6523438 142.988281 23.6523438 142.988281 28.0273438 149.814453 28.0273438 149.814453 30 140.517578 30 140.517578 15.78125 149.746094 15.78125 149.746094 17.7734375 142.988281 17.7734375 142.988281 21.6992188 148.828125 21.6992188"></polygon>
        <polygon id="Path" fill="#666666" points="162.099609 17.7734375 157.666016 17.7734375 157.666016 30 155.214844 30 155.214844 17.7734375 150.820312 17.7734375 150.820312 15.78125 162.099609 15.78125"></polygon>
    </g>
</svg>