<?xml version="1.0" encoding="UTF-8"?>
<svg width="24px" height="24px" viewBox="0 0 24 24" version="1.1" xmlns="http://www.w3.org/2000/svg" xmlns:xlink="http://www.w3.org/1999/xlink">
    <!-- Generator: Sketch 53 (72520) - https://sketchapp.com -->
    <title>icon / main / log out</title>
    <desc>Created with Sketch.</desc>
    <g id="icon-/-main-/-log-out" stroke="none" stroke-width="1" fill="none" fill-rule="evenodd">
        <rect id="Rectangle" x="0" y="0" width="24" height="24"></rect>
        <path d="M12.4411042,12.4152674 L13.4626453,11.4532889 C13.7641978,11.1693189 14.2388576,11.1835723 14.5228276,11.4851248 C14.8067976,11.7866773 14.7925442,12.2613371 14.4909917,12.5453071 L12.2091359,14.6941156 C11.9227918,14.9680741 11.4687854,14.9725865 11.176931,14.6977492 C11.1753246,14.6962636 11.1741973,14.6951917 11.1730725,14.6941156 L8.89121674,12.5453071 C8.58966424,12.2613371 8.57541081,11.7866773 8.85938081,11.4851248 C9.14335082,11.1835723 9.61801059,11.1693189 9.91956309,11.4532889 L10.9411042,12.4152674 L10.9411042,5.54337579 C10.9411042,5.12916223 11.2768906,4.79337579 11.6911042,4.79337579 C12.1053178,4.79337579 12.4411042,5.12916223 12.4411042,5.54337579 L12.4411042,12.4152674 Z M18.9411042,9.84474977 C18.9411042,9.43053621 19.2768906,9.09474977 19.6911042,9.09474977 C20.1053178,9.09474977 20.4411042,9.43053621 20.4411042,9.84474977 L20.4411042,17.3804032 C20.4411042,18.3999268 19.5838667,19.2066242 18.5482471,19.2066242 L4.83396135,19.2066242 C3.79834171,19.2066242 2.9411042,18.3999268 2.9411042,17.3804032 L2.9411042,9.84474977 C2.9411042,9.43053621 3.27689064,9.09474977 3.6911042,9.09474977 C4.10531776,9.09474977 4.4411042,9.43053621 4.4411042,9.84474977 L4.4411042,17.3804032 C4.4411042,17.5504368 4.60707688,17.7066242 4.83396135,17.7066242 L18.5482471,17.7066242 C18.7751315,17.7066242 18.9411042,17.5504368 18.9411042,17.3804032 L18.9411042,9.84474977 Z" id="Combined-Shape" fill="#2B2B2B" transform="translate(11.691104, 12.000000) rotate(-90.000000) translate(-11.691104, -12.000000) "></path>
    </g>
</svg>