<?xml version="1.0" encoding="UTF-8"?>
<svg viewBox="0 0 163 35" version="1.1" xmlns="http://www.w3.org/2000/svg" xmlns:xlink="http://www.w3.org/1999/xlink">
    <g id="webwallet" stroke="none" stroke-width="1" fill="none" fill-rule="evenodd">
        <g id="publiq-(2)-copy-8" fill="#3366FF" fill-rule="nonzero">
            <g id="Group">
                <path d="M27.3306481,31.8448919 C24.5501328,33.6919291 21.197136,34.7705879 17.587572,34.7705879 C7.97076719,34.7705879 0.175144033,27.1139833 0.175144033,17.6686739 C0.175144033,14.1239135 1.27370994,10.8310177 3.15385643,8.10015301 L7.99490715,12.8552625 C7.2414239,14.3003742 6.80809188,15.933607 6.80809188,17.6686739 C6.80809188,23.5159738 11.6341046,28.2559247 17.587572,28.2559247 C19.354142,28.2559247 21.0170289,27.8303203 22.488379,27.0902738 L27.3286383,31.8446059 C29.1751471,30.6175436 30.7703629,29.0515524 32.0193089,27.2379722 L27.1794454,22.4844174 C27.9333244,21.0385283 28.3670521,19.4049069 28.3670521,17.6690626 C28.3670521,11.8217627 23.5410394,7.08181177 17.587572,7.08181177 C15.8202106,7.08181177 14.156928,7.50741622 12.6847863,8.24824004 L7.84373561,3.49351926 C10.6245795,1.64612387 13.9776591,0.567148564 17.587572,0.567148564 C27.2039811,0.567148564 35,8.22336453 35,17.6686739 C35,21.2140059 33.9016714,24.5073266 32.0209651,27.2383194 L34.0268827,29.209623 C35.3233171,30.4817668 35.3233171,32.5444821 34.0268827,33.8158485 C32.7320313,35.0887696 30.6334379,35.0887696 29.337795,33.8162372 L27.3306481,31.8448919 Z" id="Combined-Shape"></path>
            </g>
        </g>
        <path d="M58.5976562,21.484375 L60.7851562,10.78125 L63.2363281,10.78125 L59.9550781,25 L57.5917969,25 L54.8867188,14.6191406 L52.1230469,25 L49.75,25 L46.46875,10.78125 L48.9199219,10.78125 L51.1269531,21.4648438 L53.8417969,10.78125 L55.9121094,10.78125 L58.5976562,21.484375 Z M73.3535156,18.6523438 L67.5136719,18.6523438 L67.5136719,23.0273438 L74.3398438,23.0273438 L74.3398438,25 L65.0429688,25 L65.0429688,10.78125 L74.2714844,10.78125 L74.2714844,12.7734375 L67.5136719,12.7734375 L67.5136719,16.6992188 L73.3535156,16.6992188 L73.3535156,18.6523438 Z M76.3515625,25 L76.3515625,10.78125 L81.2246094,10.78125 C82.8326903,10.78125 84.0566364,11.1035124 84.8964844,11.7480469 C85.7363323,12.3925813 86.15625,13.3528582 86.15625,14.6289062 C86.15625,15.2799512 85.9804705,15.8658828 85.6289062,16.3867188 C85.277342,16.9075547 84.7630242,17.3111965 84.0859375,17.5976562 C84.8541705,17.8059906 85.4482401,18.1982393 85.8681641,18.7744141 C86.288088,19.3505888 86.4980469,20.0423137 86.4980469,20.8496094 C86.4980469,22.1842515 86.0699913,23.2096318 85.2138672,23.9257812 C84.3577431,24.6419307 83.1321694,25 81.5371094,25 L76.3515625,25 Z M78.8222656,18.5839844 L78.8222656,23.0273438 L81.5664062,23.0273438 C82.3411497,23.0273438 82.9466124,22.8352884 83.3828125,22.4511719 C83.8190126,22.0670554 84.0371094,21.5332065 84.0371094,20.8496094 C84.0371094,19.3717374 83.2819086,18.6165366 81.7714844,18.5839844 L78.8222656,18.5839844 Z M78.8222656,16.7675781 L81.2441406,16.7675781 C82.0123736,16.7675781 82.6129536,16.5934262 83.0458984,16.2451172 C83.4788433,15.8968082 83.6953125,15.403649 83.6953125,14.765625 C83.6953125,14.0624965 83.4951192,13.5546891 83.0947266,13.2421875 C82.6943339,12.9296859 82.0709678,12.7734375 81.2246094,12.7734375 L78.8222656,12.7734375 L78.8222656,16.7675781 Z" id="WEBWALLET-Copy" fill="#ffffff"></path>
        <polygon id="Path" fill="#666666" points="100.121094 21.484375 102.308594 10.78125 104.759766 10.78125 101.478516 25 99.1152344 25 96.4101562 14.6191406 93.6464844 25 91.2734375 25 87.9921875 10.78125 90.4433594 10.78125 92.6503906 21.4648438 95.3652344 10.78125 97.4355469 10.78125"></polygon>
        <path d="M114.525391,21.6894531 L109.017578,21.6894531 L107.865234,25 L105.296875,25 L110.667969,10.78125 L112.884766,10.78125 L118.265625,25 L115.6875,25 L114.525391,21.6894531 Z M109.710938,19.6972656 L113.832031,19.6972656 L111.771484,13.7988281 L109.710938,19.6972656 Z" id="Combined-Shape" fill="#666666"></path>
        <polygon id="Path" fill="#666666" points="122.347656 23.0273438 128.802734 23.0273438 128.802734 25 119.876953 25 119.876953 10.78125 122.347656 10.78125"></polygon>
        <polygon id="Path" fill="#666666" points="133.167969 23.0273438 139.623047 23.0273438 139.623047 25 130.697266 25 130.697266 10.78125 133.167969 10.78125"></polygon>
        <polygon id="Path" fill="#666666" points="149.828125 18.6523438 143.988281 18.6523438 143.988281 23.0273438 150.814453 23.0273438 150.814453 25 141.517578 25 141.517578 10.78125 150.746094 10.78125 150.746094 12.7734375 143.988281 12.7734375 143.988281 16.6992188 149.828125 16.6992188"></polygon>
        <polygon id="Path" fill="#666666" points="163.099609 12.7734375 158.666016 12.7734375 158.666016 25 156.214844 25 156.214844 12.7734375 151.820312 12.7734375 151.820312 10.78125 163.099609 10.78125"></polygon>
    </g>
</svg>
