<?xml version="1.0" encoding="UTF-8"?>
<svg width="28px" height="28px" viewBox="0 0 28 28" version="1.1" xmlns="http://www.w3.org/2000/svg" xmlns:xlink="http://www.w3.org/1999/xlink">
    <!-- Generator: Sketch 53 (72520) - https://sketchapp.com -->
    <title>Combined Shape</title>
    <desc>Created with Sketch.</desc>
    <g id="Update" stroke="none" stroke-width="1" fill="none" fill-rule="evenodd">
        <g id="Wallet_-Send-Copy-4" transform="translate(-250.000000, -16.000000)" fill="#3366FF">
            <g id="Group-2" transform="translate(250.000000, 16.000000)">
                <path d="M21.8337666,25.6046667 C19.5981833,27.1166773 16.9022784,27.9996818 14,27.9996818 C6.26786364,27.9996818 3.73034936e-14,21.7318182 3.73034936e-14,13.9996818 C3.73034936e-14,11.0978636 0.883272727,8.40222727 2.39495455,6.16668182 L6.28759091,10.0593182 C5.68145455,11.2423182 5.33336364,12.5793182 5.33336364,13.9996818 C5.33336364,18.7864091 9.21327273,22.6666364 14.0003182,22.6666364 C15.4206818,22.6666364 16.7576818,22.3182273 17.9406818,21.7124091 L21.8320455,25.6044091 C23.3166818,24.5995909 24.5995909,23.3179545 25.6037727,21.8333182 L21.7120909,17.9419545 C22.3185455,16.7583182 22.6669545,15.421 22.6669545,14 C22.6669545,9.21327273 18.7870455,5.33304545 14.0003182,5.33304545 C12.579,5.33304545 11.2416818,5.68113636 10.0580455,6.28790909 L6.16604545,2.39559091 C8.40159091,0.883272727 11.0978636,-1.42108547e-14 14.0003182,-1.42108547e-14 C21.7321364,-1.42108547e-14 28,6.26754545 28,13.9996818 C28,16.9019643 27.1169651,19.5979454 25.6048758,21.833594 L27.2179091,23.4472636 C28.2599545,24.4886727 28.2599545,26.1772636 27.2179091,27.2183545 C26.1768182,28.2600818 24.4895,28.2600818 23.4474545,27.2186727 L21.8337666,25.6046667 Z" id="Combined-Shape"></path>
            </g>
        </g>
    </g>
</svg>