<?xml version="1.0" encoding="UTF-8"?>
<svg width="24px" height="24px" viewBox="0 0 24 24" version="1.1" xmlns="http://www.w3.org/2000/svg" xmlns:xlink="http://www.w3.org/1999/xlink">
    <!-- Generator: Sketch 53 (72520) - https://sketchapp.com -->
    <title>icon / main / Wallet</title>
    <desc>Created with Sketch.</desc>
    <g id="icon-/-main-/-Wallet" stroke="none" stroke-width="1" fill="none" fill-rule="evenodd">
        <rect id="Rectangle-Copy-5" x="0" y="0" width="24" height="24"></rect>
        <path d="M5.81281328,8.25988238 L14.695562,4.31456766 C15.1915093,4.09429032 15.75,4.45733451 15.75,5 L15.75,8.25 L18,8.25 C18.9668748,8.25 19.75,9.03315558 19.75,9.99934811 L19.75,17.994133 C19.75,18.9603255 18.9668748,19.7434811 18,19.7434811 L6,19.7434811 C5.03312524,19.7434811 4.25,18.9603255 4.25,17.994133 L4.25,9.99934811 C4.25,9.09634845 4.93403613,8.35322601 5.81281328,8.25988238 Z M9.53039674,8.25 L14.25,8.25 L14.25,6.15376596 L9.53039674,8.25 Z M18,18.2434811 C18.1384346,18.2434811 18.25,18.1319114 18.25,17.994133 L18.25,9.99934811 C18.25,9.86156969 18.1384346,9.75 18,9.75 L6,9.75 C5.86156537,9.75 5.75,9.86156969 5.75,9.99934811 L5.75,17.994133 C5.75,18.1319114 5.86156537,18.2434811 6,18.2434811 L18,18.2434811 Z M17,13.9993481 C17,14.5509883 16.553,14.9986962 16,14.9986962 C15.447,14.9986962 15,14.5509883 15,13.9993481 C15,13.447708 15.447,13 16,13 C16.553,13 17,13.447708 17,13.9993481 Z" id="Combined-Shape" fill="#ffffff"></path>
    </g>
</svg>
