<?xml version="1.0" encoding="UTF-8"?>
<svg width="128px" height="28px" viewBox="0 0 128 28" version="1.1" xmlns="http://www.w3.org/2000/svg" xmlns:xlink="http://www.w3.org/1999/xlink">
    <!-- Generator: Sketch 53 (72520) - https://sketchapp.com -->
    <title>Group 2</title>
    <desc>Created with Sketch.</desc>
    <g id="Update" stroke="none" stroke-width="1" fill="none" fill-rule="evenodd">
        <g id="1" transform="translate(-250.000000, -15.000000)">
            <g id="Group-6">
                <g id="Group-2" transform="translate(250.000000, 15.000000)">
                    <path d="M21.8337666,25.6046667 C19.5981833,27.1166773 16.9022784,27.9996818 14,27.9996818 C6.26786364,27.9996818 3.73034936e-14,21.7318182 3.73034936e-14,13.9996818 C3.73034936e-14,11.0978636 0.883272727,8.40222727 2.39495455,6.16668182 L6.28759091,10.0593182 C5.68145455,11.2423182 5.33336364,12.5793182 5.33336364,13.9996818 C5.33336364,18.7864091 9.21327273,22.6666364 14.0003182,22.6666364 C15.4206818,22.6666364 16.7576818,22.3182273 17.9406818,21.7124091 L21.8320455,25.6044091 C23.3166818,24.5995909 24.5995909,23.3179545 25.6037727,21.8333182 L21.7120909,17.9419545 C22.3185455,16.7583182 22.6669545,15.421 22.6669545,14 C22.6669545,9.21327273 18.7870455,5.33304545 14.0003182,5.33304545 C12.579,5.33304545 11.2416818,5.68113636 10.0580455,6.28790909 L6.16604545,2.39559091 C8.40159091,0.883272727 11.0978636,-1.42108547e-14 14.0003182,-1.42108547e-14 C21.7321364,-1.42108547e-14 28,6.26754545 28,13.9996818 C28,16.9019643 27.1169651,19.5979454 25.6048758,21.833594 L27.2179091,23.4472636 C28.2599545,24.4886727 28.2599545,26.1772636 27.2179091,27.2183545 C26.1768182,28.2600818 24.4895,28.2600818 23.4474545,27.2186727 L21.8337666,25.6046667 Z" id="Combined-Shape" fill="#3366FF"></path>
                    <path d="M46.0639648,14.8564453 L41.1000977,14.8564453 L41.1000977,18.5751953 L46.9023438,18.5751953 L46.9023438,20.2519531 L39,20.2519531 L39,8.16601562 L46.8442383,8.16601562 L46.8442383,9.859375 L41.1000977,9.859375 L41.1000977,13.1962891 L46.0639648,13.1962891 L46.0639648,14.8564453 Z M53.9043291,12.5322266 L56.4443682,8.16601562 L58.8681963,8.16601562 L55.2158525,14.1591797 L58.9512041,20.2519531 L56.5024736,20.2519531 L53.9043291,15.8193359 L51.2978838,20.2519531 L48.8574541,20.2519531 L52.6011064,14.1591797 L48.9404619,8.16601562 L51.36429,8.16601562 L53.9043291,12.5322266 Z M63.7368808,15.7612305 L63.7368808,20.2519531 L61.6367832,20.2519531 L61.6367832,8.16601562 L66.2603183,8.16601562 C67.6105855,8.16601562 68.682759,8.51741185 69.4768711,9.22021484 C70.2709831,9.92301784 70.6680332,10.852696 70.6680332,12.0092773 C70.6680332,13.1935281 70.2792838,14.1149056 69.5017734,14.7734375 C68.724263,15.4319694 67.6354881,15.7612305 66.235416,15.7612305 L63.7368808,15.7612305 Z M63.7368808,14.0761719 L66.2603183,14.0761719 C67.0073924,14.0761719 67.5773737,13.9004738 67.9702793,13.5490723 C68.3631849,13.1976708 68.5596348,12.6899447 68.5596348,12.0258789 C68.5596348,11.3728808 68.360418,10.8513203 67.9619785,10.4611816 C67.563539,10.071043 67.0156929,9.87044276 66.3184238,9.859375 L63.7368808,9.859375 L63.7368808,14.0761719 Z M75.7359365,18.5751953 L81.2227529,18.5751953 L81.2227529,20.2519531 L73.6358388,20.2519531 L73.6358388,8.16601562 L75.7359365,8.16601562 L75.7359365,18.5751953 Z M93.0806953,14.5244141 C93.0806953,15.7086648 92.8759447,16.7476355 92.4664375,17.6413574 C92.0569302,18.5350793 91.471731,19.2212704 90.7108222,19.6999512 C89.9499135,20.178632 89.0741898,20.4179688 88.083625,20.4179688 C87.1041279,20.4179688 86.2311711,20.178632 85.4647285,19.6999512 C84.6982859,19.2212704 84.1061694,18.5392297 83.6883613,17.6538086 C83.2705532,16.7683875 83.0588854,15.7474016 83.0533515,14.5908203 L83.0533515,13.9101562 C83.0533515,12.7314394 83.2622524,11.6910852 83.6800605,10.7890625 C84.0978686,9.88703976 84.6872182,9.19669836 85.4481269,8.71801758 C86.2090357,8.2393368 87.0819924,8 88.0670234,8 C89.0520544,8 89.9250111,8.2365699 90.6859199,8.7097168 C91.4468286,9.18286369 92.0347948,9.86352095 92.4498359,10.751709 C92.864877,11.639897 93.0751614,12.673334 93.0806953,13.8520508 L93.0806953,14.5244141 Z M90.9805976,13.8935547 C90.9805976,12.5543553 90.7274263,11.5278356 90.2210761,10.8139648 C89.714726,10.1000941 88.9967156,9.74316406 88.0670234,9.74316406 C87.1594668,9.74316406 86.4497571,10.0987106 85.937873,10.8098145 C85.4259889,11.5209183 85.164517,12.5266862 85.1534492,13.8271484 L85.1534492,14.5244141 C85.1534492,15.8525457 85.4121543,16.8790654 85.9295722,17.6040039 C86.4469902,18.3289424 87.1650006,18.6914062 88.083625,18.6914062 C89.0133171,18.6914062 89.7285606,18.3372431 90.2293769,17.6289062 C90.7301932,16.9205694 90.9805976,15.885749 90.9805976,14.5244141 L90.9805976,13.8935547 Z M100.746743,15.5952148 L98.4059228,15.5952148 L98.4059228,20.2519531 L96.3058252,20.2519531 L96.3058252,8.16601562 L100.555825,8.16601562 C101.950363,8.16601562 103.026687,8.47867526 103.784829,9.10400391 C104.542971,9.72933255 104.922036,10.6341087 104.922036,11.8183594 C104.922036,12.6263061 104.72697,13.302813 104.336831,13.8479004 C103.946692,14.3929878 103.402997,14.812173 102.705727,15.1054688 L105.420083,20.144043 L105.420083,20.2519531 L103.170571,20.2519531 L100.746743,15.5952148 Z M98.4059228,13.9101562 L100.564126,13.9101562 C101.272463,13.9101562 101.825843,13.7316912 102.224282,13.3747559 C102.622722,13.0178205 102.821938,12.5294627 102.821938,11.909668 C102.821938,11.2622038 102.63794,10.761395 102.269936,10.4072266 C101.901933,10.0530581 101.352704,9.87044276 100.622231,9.859375 L98.4059228,9.859375 L98.4059228,13.9101562 Z M115.111521,14.8564453 L110.147654,14.8564453 L110.147654,18.5751953 L115.9499,18.5751953 L115.9499,20.2519531 L108.047557,20.2519531 L108.047557,8.16601562 L115.891795,8.16601562 L115.891795,9.859375 L110.147654,9.859375 L110.147654,13.1962891 L115.111521,13.1962891 L115.111521,14.8564453 Z M123.234112,15.5952148 L120.893292,15.5952148 L120.893292,20.2519531 L118.793194,20.2519531 L118.793194,8.16601562 L123.043194,8.16601562 C124.437733,8.16601562 125.514056,8.47867526 126.272198,9.10400391 C127.03034,9.72933255 127.409405,10.6341087 127.409405,11.8183594 C127.409405,12.6263061 127.214339,13.302813 126.8242,13.8479004 C126.434061,14.3929878 125.890366,14.812173 125.193097,15.1054688 L127.907452,20.144043 L127.907452,20.2519531 L125.65794,20.2519531 L123.234112,15.5952148 Z M120.893292,13.9101562 L123.051495,13.9101562 C123.759832,13.9101562 124.313212,13.7316912 124.711651,13.3747559 C125.110091,13.0178205 125.309308,12.5294627 125.309308,11.909668 C125.309308,11.2622038 125.125309,10.761395 124.757306,10.4072266 C124.389302,10.0530581 123.840073,9.87044276 123.109601,9.859375 L120.893292,9.859375 L120.893292,13.9101562 Z" id="EXPLORER" fill="#191B1E" fill-rule="nonzero"></path>
                </g>
            </g>
        </g>
    </g>
</svg>