<?xml version="1.0" encoding="UTF-8"?>
<svg width="133px" height="35px" viewBox="0 0 133 35" version="1.1" xmlns="http://www.w3.org/2000/svg" xmlns:xlink="http://www.w3.org/1999/xlink">
    <g id="explorer" stroke="none" stroke-width="1" fill="none" fill-rule="evenodd">
        <g id="publiq-(2)-copy-8" fill="#3366FF" fill-rule="nonzero">
            <g id="Group">
                <path d="M27.3306481,31.8448919 C24.5501328,33.6919291 21.197136,34.7705879 17.587572,34.7705879 C7.97076719,34.7705879 0.175144033,27.1139833 0.175144033,17.6686739 C0.175144033,14.1239135 1.27370994,10.8310177 3.15385643,8.10015301 L7.99490715,12.8552625 C7.2414239,14.3003742 6.80809188,15.933607 6.80809188,17.6686739 C6.80809188,23.5159738 11.6341046,28.2559247 17.587572,28.2559247 C19.354142,28.2559247 21.0170289,27.8303203 22.488379,27.0902738 L27.3286383,31.8446059 C29.1751471,30.6175436 30.7703629,29.0515524 32.0193089,27.2379722 L27.1794454,22.4844174 C27.9333244,21.0385283 28.3670521,19.4049069 28.3670521,17.6690626 C28.3670521,11.8217627 23.5410394,7.08181177 17.587572,7.08181177 C15.8202106,7.08181177 14.156928,7.50741622 12.6847863,8.24824004 L7.84373561,3.49351926 C10.6245795,1.64612387 13.9776591,0.567148564 17.587572,0.567148564 C27.2039811,0.567148564 35,8.22336453 35,17.6686739 C35,21.2140059 33.9016714,24.5073266 32.0209651,27.2383194 L34.0268827,29.209623 C35.3233171,30.4817668 35.3233171,32.5444821 34.0268827,33.8158485 C32.7320313,35.0887696 30.6334379,35.0887696 29.337795,33.8162372 L27.3306481,31.8448919 Z" id="Combined-Shape"></path>
            </g>
        </g>
        <path d="M53.7802734,19.2871094 L48.5244141,19.2871094 L48.5244141,23.2246094 L54.6679688,23.2246094 L54.6679688,25 L46.3007812,25 L46.3007812,12.203125 L54.6064453,12.203125 L54.6064453,13.9960938 L48.5244141,13.9960938 L48.5244141,17.5292969 L53.7802734,17.5292969 L53.7802734,19.2871094 Z M60.8818359,16.8261719 L63.5712891,12.203125 L66.1376953,12.203125 L62.2705078,18.5488281 L66.2255859,25 L63.6328125,25 L60.8818359,20.3066406 L58.1220703,25 L55.5380859,25 L59.5019531,18.5488281 L55.6259766,12.203125 L58.1923828,12.203125 L60.8818359,16.8261719 Z M70.0927734,20.2451172 L70.0927734,25 L67.8691406,25 L67.8691406,12.203125 L72.7646484,12.203125 C74.1943431,12.203125 75.3295856,12.5751916 76.1704102,13.3193359 C77.0112347,14.0634803 77.4316406,15.0478454 77.4316406,16.2724609 C77.4316406,17.5263735 77.0200236,18.5019496 76.1967773,19.1992188 C75.373531,19.8964879 74.2207105,20.2451172 72.7382812,20.2451172 L70.0927734,20.2451172 Z M70.0927734,18.4609375 L72.7646484,18.4609375 C73.555668,18.4609375 74.1591776,18.2749042 74.5751953,17.902832 C74.991213,17.5307599 75.1992188,16.9931676 75.1992188,16.2900391 C75.1992188,15.5986294 74.9882834,15.0463888 74.5664062,14.6333008 C74.1445291,14.2202128 73.5644568,14.0078126 72.8261719,13.9960938 L70.0927734,13.9960938 L70.0927734,18.4609375 Z M81.5976562,23.2246094 L87.4072266,23.2246094 L87.4072266,25 L79.3740234,25 L79.3740234,12.203125 L81.5976562,12.203125 L81.5976562,23.2246094 Z M99.3251953,18.9355469 C99.3251953,20.1894594 99.1084006,21.289546 98.6748047,22.2358398 C98.2412088,23.1821336 97.6215861,23.9086889 96.815918,24.4155273 C96.0102499,24.9223658 95.0830131,25.1757812 94.0341797,25.1757812 C92.9970651,25.1757812 92.072758,24.9223658 91.2612305,24.4155273 C90.449703,23.9086889 89.8227561,23.1865281 89.3803711,22.2490234 C88.9379861,21.3115187 88.7138672,20.2304749 88.7080078,19.0058594 L88.7080078,18.2851562 C88.7080078,17.0371031 88.929197,15.9355517 89.371582,14.9804688 C89.8139671,14.0253858 90.4379843,13.2944361 91.2436523,12.7875977 C92.0493204,12.2807592 92.9736276,12.0273438 94.0166016,12.0273438 C95.0595755,12.0273438 95.9838827,12.2778295 96.7895508,12.7788086 C97.5952189,13.2797877 98.2177712,14.0004836 98.6572266,14.940918 C99.0966819,15.8813524 99.3193359,16.9755797 99.3251953,18.2236328 L99.3251953,18.9355469 Z M97.1015625,18.2675781 C97.1015625,16.8496023 96.8334988,15.7626991 96.2973633,15.0068359 C95.7612278,14.2509728 95.0009815,13.8730469 94.0166016,13.8730469 C93.0556593,13.8730469 92.3042019,14.249508 91.762207,15.0024414 C91.2202121,15.7553749 90.9433594,16.8203056 90.9316406,18.1972656 L90.9316406,18.9355469 C90.9316406,20.3418039 91.2055637,21.4287071 91.753418,22.1962891 C92.3012723,22.963871 93.0615186,23.3476562 94.0341797,23.3476562 C95.0185596,23.3476562 95.7758763,22.97266 96.3061523,22.2226562 C96.8364284,21.4726525 97.1015625,20.3769603 97.1015625,18.9355469 L97.1015625,18.2675781 Z M106.242188,20.0693359 L103.763672,20.0693359 L103.763672,25 L101.540039,25 L101.540039,12.203125 L106.040039,12.203125 C107.516609,12.203125 108.656246,12.5341764 109.458984,13.1962891 C110.261723,13.8584017 110.663086,14.8164 110.663086,16.0703125 C110.663086,16.9257855 110.456545,17.642087 110.043457,18.2192383 C109.630369,18.7963896 109.054691,19.2402328 108.316406,19.5507812 L111.19043,24.8857422 L111.19043,25 L108.808594,25 L106.242188,20.0693359 Z M103.763672,18.2851562 L106.048828,18.2851562 C106.798832,18.2851562 107.384764,18.0961933 107.806641,17.7182617 C108.228518,17.3403301 108.439453,16.8232455 108.439453,16.1669922 C108.439453,15.4814419 108.244631,14.9511737 107.85498,14.5761719 C107.46533,14.20117 106.883793,14.0078126 106.110352,13.9960938 L103.763672,13.9960938 L103.763672,18.2851562 Z M120.251953,19.2871094 L114.996094,19.2871094 L114.996094,23.2246094 L121.139648,23.2246094 L121.139648,25 L112.772461,25 L112.772461,12.203125 L121.078125,12.203125 L121.078125,13.9960938 L114.996094,13.9960938 L114.996094,17.5292969 L120.251953,17.5292969 L120.251953,19.2871094 Z M127.652344,20.0693359 L125.173828,20.0693359 L125.173828,25 L122.950195,25 L122.950195,12.203125 L127.450195,12.203125 C128.926765,12.203125 130.066402,12.5341764 130.869141,13.1962891 C131.671879,13.8584017 132.073242,14.8164 132.073242,16.0703125 C132.073242,16.9257855 131.866701,17.642087 131.453613,18.2192383 C131.040525,18.7963896 130.464847,19.2402328 129.726562,19.5507812 L132.600586,24.8857422 L132.600586,25 L130.21875,25 L127.652344,20.0693359 Z M125.173828,18.2851562 L127.458984,18.2851562 C128.208988,18.2851562 128.79492,18.0961933 129.216797,17.7182617 C129.638674,17.3403301 129.849609,16.8232455 129.849609,16.1669922 C129.849609,15.4814419 129.654787,14.9511737 129.265137,14.5761719 C128.875486,14.20117 128.293949,14.0078126 127.520508,13.9960938 L125.173828,13.9960938 L125.173828,18.2851562 Z" id="EXPLORER" fill="#000000"></path>
    </g>
</svg>
