<svg xmlns="http://www.w3.org/2000/svg" viewBox="0 0 80 80"><defs><style>.cls-1{fill:#ecf0f3;}.cls-2{fill:#36f;}.cls-3{fill:#fff;}.cls-4{fill:#f7f8f9;}.cls-5,.cls-6{fill:#dee2e6;}.cls-6{opacity:0;}</style></defs><title>No Story</title><g id="Layer_2" data-name="Layer 2"><g id="Layer_1-2" data-name="Layer 1"><path class="cls-1" d="M35.49,57.58h-9.6a1,1,0,0,1,0-2h9.6a1,1,0,0,1,0,2Z"/><path class="cls-1" d="M23.29,57.58H19.54a1,1,0,0,1,0-2h3.75a1,1,0,1,1,0,2Z"/><path class="cls-1" d="M47.13,51.26H37.62a1,1,0,0,1,0-2h9.51a1,1,0,0,1,0,2Z"/><path class="cls-1" d="M33.61,51.26H19.73a1,1,0,1,1,0-2H33.61a1,1,0,0,1,0,2Z"/><path class="cls-1" d="M47.58,44.93H44.25a1,1,0,0,1,0-2h3.33a1,1,0,0,1,0,2Z"/><path class="cls-1" d="M40.22,44.93H19.92a1,1,0,0,1,0-2h20.3a1,1,0,0,1,0,2Z"/><path class="cls-1" d="M47.5,38.61H34.41a1,1,0,0,1,0-2H47.5a1,1,0,0,1,0,2Z"/><path class="cls-1" d="M30.2,38.61H20.1a1,1,0,0,1,0-2H30.2a1,1,0,1,1,0,2Z"/><path class="cls-2" d="M37.32,21h-17a.75.75,0,0,1,0-1.5h17a.75.75,0,0,1,0,1.5Z"/><path class="cls-2" d="M26.79,25.5h-6.5a.75.75,0,0,1,0-1.5h6.5a.75.75,0,0,1,0,1.5Z"/><path class="cls-3" d="M42.61,12.22V23.31a2.92,2.92,0,0,0,2.88,2.83h9.87"/><path class="cls-4" d="M44,13.6V25.44A2.68,2.68,0,0,0,46.62,28h9V26"/><path class="cls-5" d="M55.36,27.14H45.49a3.93,3.93,0,0,1-3.88-3.8V20.88a1,1,0,1,1,2,0v2.43a1.93,1.93,0,0,0,1.9,1.83h9.85a1,1,0,0,1,0,2Z"/><path class="cls-5" d="M42.61,19.2a1,1,0,0,1-1-1v-6a1,1,0,1,1,2,0v6A1,1,0,0,1,42.61,19.2Z"/><path class="cls-5" d="M11.78,26.41a1,1,0,0,1-1-1v-.57a1,1,0,0,1,2,0v.57A1,1,0,0,1,11.78,26.41Z"/><path class="cls-5" d="M39.55,69.81H14.24a3.46,3.46,0,0,1-3.46-3.46V31.52a1,1,0,0,1,2,0V66.35a1.46,1.46,0,0,0,1.46,1.46H39.55a1,1,0,0,1,0,2Z"/><path class="cls-5" d="M55.59,47.31a1,1,0,0,1-1-1l-.23-19.79L42.17,13.19H14.24a1.46,1.46,0,0,0-1.46,1.46V22a1,1,0,0,1-2,0V14.65a3.46,3.46,0,0,1,3.46-3.46H42.61a1,1,0,0,1,.74.32l12.75,14a1,1,0,0,1,.26.67l.23,20.16a1,1,0,0,1-1,1Z"/><path class="cls-4" d="M50.55,66.72l-4.4,1.74a.72.72,0,0,1-.93-.93L47,63.13a3.57,3.57,0,0,1,.82-1.25L63.9,45.76a1,1,0,0,1,1.48,0l2.54,2.53a1,1,0,0,1,0,1.48L51.79,65.9A3.68,3.68,0,0,1,50.55,66.72Z"/><path class="cls-5" d="M45.89,69.51A1.69,1.69,0,0,1,44.68,69a1.71,1.71,0,0,1-.39-1.83L46,62.76a4.67,4.67,0,0,1,1-1.58L63.19,45.05a2.1,2.1,0,0,1,2.9,0l2.53,2.53a2.06,2.06,0,0,1,0,2.9L52.5,66.61a4.88,4.88,0,0,1-1.58,1l-4.4,1.74A1.72,1.72,0,0,1,45.89,69.51Zm18.78-23L48.48,62.59a2.6,2.6,0,0,0-.59.91l-1.5,3.79,3.79-1.5h0a2.77,2.77,0,0,0,.91-.6L67.21,49.07Z"/><rect class="cls-6" width="80" height="80"/></g></g></svg>