<?xml version="1.0" encoding="UTF-8"?>
<svg width="60px" height="60px" viewBox="0 0 60 60" version="1.1" xmlns="http://www.w3.org/2000/svg" xmlns:xlink="http://www.w3.org/1999/xlink">
    <!-- Generator: Sketch 53.2 (72643) - https://sketchapp.com -->
    <title>il / no_story</title>
    <desc>Created with Sketch.</desc>
    <g id="Page-1" stroke="none" stroke-width="1" fill="none" fill-rule="evenodd">
        <g id="Profile---Long-bio" transform="translate(-696.000000, -677.000000)">
            <g id="Group-25" transform="translate(287.000000, 428.000000)">
                <g id="Group-28" transform="translate(324.000000, 239.000000)">
                    <g id="il-/-no_story" transform="translate(70.000000, 0.000000)">
                        <rect id="Rectangle" x="0" y="0" width="80" height="80"></rect>
                        <g id="Edit-File-Copy" stroke-width="1" fill-rule="evenodd" transform="translate(16.571429, 11.428571)">
                            <path d="M14.3091977,44.5870841 L23.9021526,44.5870841" id="Path" stroke="#ECF0F3" stroke-width="2" stroke-linecap="round" stroke-linejoin="round"></path>
                            <path d="M7.96086106,44.5870841 L11.702544,44.5870841" id="Path" stroke="#ECF0F3" stroke-width="2" stroke-linecap="round" stroke-linejoin="round"></path>
                            <path d="M26.035225,38.2622309 L35.5459883,38.2622309" id="Path" stroke="#ECF0F3" stroke-width="2" stroke-linecap="round" stroke-linejoin="round"></path>
                            <path d="M8.14872798,38.2622309 L22.0273973,38.2622309" id="Path" stroke="#ECF0F3" stroke-width="2" stroke-linecap="round" stroke-linejoin="round"></path>
                            <path d="M32.6692759,31.9373777 L35.9960861,31.9373777" id="Path" stroke="#ECF0F3" stroke-width="2" stroke-linecap="round" stroke-linejoin="round"></path>
                            <path d="M8.33268102,31.9373777 L28.6379648,31.9373777" id="Path" stroke="#ECF0F3" stroke-width="2" stroke-linecap="round" stroke-linejoin="round"></path>
                            <path d="M22.8258317,25.6125245 L35.9178082,25.6125245" id="Path" stroke="#ECF0F3" stroke-width="2" stroke-linecap="round" stroke-linejoin="round"></path>
                            <path d="M8.51663405,25.6125245 L18.6183953,25.6125245" id="Path" stroke="#ECF0F3" stroke-width="2" stroke-linecap="round" stroke-linejoin="round"></path>
                            <path d="M8.70450098,8.26614481 L25.7338552,8.26614481" id="Path" stroke="#3366FF" stroke-width="1.5" stroke-linecap="round" stroke-linejoin="round"></path>
                            <path d="M8.70450098,12.7553816 L15.2093933,12.7553816" id="Path" stroke="#3366FF" stroke-width="1.5" stroke-linecap="round" stroke-linejoin="round"></path>
                            <path d="M31.0293542,0.227005871 L31.0293542,11.3150685 C31.079386,12.8764176 32.3479877,14.1226119 33.9099804,14.1448141 L43.776908,14.1448141" id="Path" fill="#FFFFFF" fill-rule="nonzero"></path>
                            <path d="M32.4187867,1.60383096 L32.4187867,13.4481409 C32.4645648,14.8677449 33.6170142,16.0012452 35.037182,16.0234834 L44.0039139,16.0234834 L44.0039139,13.9804305" id="Path" fill="#F7F8F9" fill-rule="nonzero"></path>
                            <path d="M31.0293542,8.88454012 L31.0293542,11.3150685 C31.079386,12.8764176 32.3479877,14.1226119 33.9099804,14.1448141 L43.776908,14.1448141" id="Path" stroke="#DEE2E6" stroke-width="2" stroke-linecap="round" stroke-linejoin="round"></path>
                            <path d="M31.0293542,0.227005871 L31.0293542,6.21135029" id="Path" stroke="#DEE2E6" stroke-width="2" stroke-linecap="round" stroke-linejoin="round"></path>
                            <path d="M0.195694716,13.4168297 L0.195694716,12.8493151" id="Path" stroke="#DEE2E6" stroke-width="2" stroke-linecap="round" stroke-linejoin="round"></path>
                            <path d="M0.195694716,19.5264188 L0.195694716,54.3600783 C0.197853873,55.718186 1.29942482,56.8180056 2.65753425,56.8180039 L27.9686888,56.8180039" id="Path" stroke="#DEE2E6" stroke-width="2" stroke-linecap="round" stroke-linejoin="round"></path>
                            <path d="M44.0117417,34.3131115 L43.776908,14.1448141 L31.0293542,0.195694716 L2.65753425,0.195694716 C1.29789782,0.195694716 0.195694716,1.29789782 0.195694716,2.65753425 L0.195694716,10.0117417" id="Path" stroke="#DEE2E6" stroke-width="2" stroke-linecap="round" stroke-linejoin="round"></path>
                            <path d="M38.964775,54.7240705 L34.5694716,56.4657534 C34.3035594,56.5686423 34.0019831,56.5049606 33.8003704,56.3033478 C33.5987576,56.1017351 33.5350759,55.8001588 33.6379648,55.5342466 L35.3757339,51.1350294 C35.5602026,50.66847 35.8386362,50.2448248 36.1937378,49.890411 L52.3150685,33.7651663 C52.5112651,33.5675015 52.7782475,33.4563303 53.0567515,33.4563303 C53.3352555,33.4563303 53.6022379,33.5675015 53.7984344,33.7651663 L56.334638,36.297456 C56.7420963,36.7079693 56.7420963,37.3703086 56.334638,37.7808219 L40.2093933,53.9099804 C39.8541273,54.2630709 39.4306401,54.5400689 38.964775,54.7240705 L38.964775,54.7240705 Z" id="Path" stroke="#DEE2E6" stroke-width="2" fill="#F7F8F9" stroke-linecap="round" stroke-linejoin="round"></path>
                        </g>
                    </g>
                </g>
            </g>
        </g>
    </g>
</svg>