<?xml version="1.0" encoding="UTF-8"?>
<svg viewBox="0 0 100 35" version="1.1" xmlns="http://www.w3.org/2000/svg" xmlns:xlink="http://www.w3.org/1999/xlink">
    <g id="Media" stroke="none" stroke-width="1" fill="none" fill-rule="evenodd">
        <g id="publiq-(2)-copy-8" fill="#3366FF" fill-rule="nonzero">
            <g id="Group">
                <path d="M27.3306481,31.8448919 C24.5501328,33.6919291 21.197136,34.7705879 17.587572,34.7705879 C7.97076719,34.7705879 0.175144033,27.1139833 0.175144033,17.6686739 C0.175144033,14.1239135 1.27370994,10.8310177 3.15385643,8.10015301 L7.99490715,12.8552625 C7.2414239,14.3003742 6.80809188,15.933607 6.80809188,17.6686739 C6.80809188,23.5159738 11.6341046,28.2559247 17.587572,28.2559247 C19.354142,28.2559247 21.0170289,27.8303203 22.488379,27.0902738 L27.3286383,31.8446059 C29.1751471,30.6175436 30.7703629,29.0515524 32.0193089,27.2379722 L27.1794454,22.4844174 C27.9333244,21.0385283 28.3670521,19.4049069 28.3670521,17.6690626 C28.3670521,11.8217627 23.5410394,7.08181177 17.587572,7.08181177 C15.8202106,7.08181177 14.156928,7.50741622 12.6847863,8.24824004 L7.84373561,3.49351926 C10.6245795,1.64612387 13.9776591,0.567148564 17.587572,0.567148564 C27.2039811,0.567148564 35,8.22336453 35,17.6686739 C35,21.2140059 33.9016714,24.5073266 32.0209651,27.2383194 L34.0268827,29.209623 C35.3233171,30.4817668 35.3233171,32.5444821 34.0268827,33.8158485 C32.7320313,35.0887696 30.6334379,35.0887696 29.337795,33.8162372 L27.3306481,31.8448919 Z" id="Combined-Shape"></path>
            </g>
        </g>
        <path d="M49.1835938,12.203125 L52.875,22.0117188 L56.5576172,12.203125 L59.4316406,12.203125 L59.4316406,25 L57.2167969,25 L57.2167969,20.78125 L57.4365234,15.1386719 L53.6572266,25 L52.0664062,25 L48.2958984,15.1474609 L48.515625,20.78125 L48.515625,25 L46.3007812,25 L46.3007812,12.203125 L49.1835938,12.203125 Z M69.5390625,19.2871094 L64.2832031,19.2871094 L64.2832031,23.2246094 L70.4267578,23.2246094 L70.4267578,25 L62.0595703,25 L62.0595703,12.203125 L70.3652344,12.203125 L70.3652344,13.9960938 L64.2832031,13.9960938 L64.2832031,17.5292969 L69.5390625,17.5292969 L69.5390625,19.2871094 Z M72.2373047,25 L72.2373047,12.203125 L76.0166016,12.203125 C77.1474666,12.203125 78.1508745,12.4550756 79.0268555,12.9589844 C79.9028364,13.4628931 80.5810523,14.1777297 81.0615234,15.1035156 C81.5419946,16.0293015 81.7822266,17.0898378 81.7822266,18.2851562 L81.7822266,18.9267578 C81.7822266,20.1396545 81.5405298,21.2060501 81.0571289,22.1259766 C80.5737281,23.045903 79.8852584,23.7548803 78.9916992,24.2529297 C78.0981401,24.7509791 77.0742245,25 75.9199219,25 L72.2373047,25 Z M74.4609375,13.9960938 L74.4609375,23.2246094 L75.9111328,23.2246094 C77.0771543,23.2246094 77.9721648,22.8598669 78.5961914,22.1303711 C79.220218,21.4008753 79.5380859,20.3535225 79.5498047,18.9882812 L79.5498047,18.2763672 C79.5498047,16.8876884 79.2480499,15.8271521 78.6445312,15.0947266 C78.0410126,14.362301 77.1650448,13.9960938 76.0166016,13.9960938 L74.4609375,13.9960938 Z M86.34375,25 L84.1289062,25 L84.1289062,12.203125 L86.34375,12.203125 L86.34375,25 Z M96.2402344,22.0205078 L91.2832031,22.0205078 L90.2460938,25 L87.9345703,25 L92.7685547,12.203125 L94.7636719,12.203125 L99.6064453,25 L97.2861328,25 L96.2402344,22.0205078 Z M91.9072266,20.2275391 L95.6162109,20.2275391 L93.7617188,14.9189453 L91.9072266,20.2275391 Z" id="MEDIA-Copy-3" fill="#000000"></path>
    </g>
</svg>